<?xml version="1.0" encoding="utf-8" ?>
<svg xmlns="http://www.w3.org/2000/svg" xmlns:xlink="http://www.w3.org/1999/xlink" width="1024" height="1024">
	<path fill="#126373" d="M318.152 849.502C323.316 854.24 327.979 859.481 332.944 864.423Q350.18 881.289 367.24 898.333C377.298 908.225 428.93 955.273 432.507 963.172C379.216 962.411 325.809 963.171 272.507 963.171C246.031 963.171 216.846 964.604 190.687 961.682Q186.88 961.251 183.108 960.578Q179.336 959.906 175.614 958.995Q171.892 958.084 168.236 956.939Q164.58 955.793 161.004 954.417C133.52 943.617 107.318 924.568 90.3259 900.25C82.494 889.042 76.6773 877.158 71.1976 864.675L71.8071 863.985C73.381 863.915 75.0785 869.628 77.9305 870.476C79.0955 869.973 81.0786 869.662 82.069 868.993C83.4398 868.066 83.2347 867.323 83.3434 865.825C84.6444 865.215 86.2045 865.455 87.6342 865.463C95.3877 865.507 95.3914 866.448 102.306 868.479C103.037 868.694 104.799 869.271 105.48 869.14C107.118 868.824 109.326 866.913 111.083 866.31C114.573 865.114 117.931 865.941 121.47 863.945C121.683 863.253 121.872 862.572 122.037 861.866L122.198 861.154C124.955 860.188 128.75 858.224 131.591 858.088C136.736 857.841 147.38 861.75 151.284 860.462C152.324 860.119 153.218 859.572 154.338 859.448C155.453 859.326 175.532 858.565 175.793 858.602C179.244 859.091 182.515 860.747 185.978 860.949C189.382 861.147 192.822 860.006 196.195 860.092C198.074 860.14 198.847 861.705 200.016 863.045C200.29 862.978 200.585 862.968 200.84 862.846C201.809 862.383 202.043 861.761 203.236 861.53L206.535 864.921C207.498 864.818 207.703 864.753 208.507 864.29C210.253 863.286 211.186 862.401 211.702 860.43C213.912 861.135 215.85 862.326 218.19 862.672C221.962 863.23 231.334 862.805 234.205 864.03C235.276 864.487 237.035 866.879 238.294 867.737C241.354 868.057 244.155 866.67 247.089 866.948C248.891 867.119 251.942 868.431 253.638 868.081C254.077 867.991 255.207 867.461 255.625 867.219C258.951 865.29 264.67 864.687 268.381 866.141C270.372 866.921 272.236 868.231 274.321 868.746C277.284 869.478 281.416 868.857 284.464 868.752L285.101 869.734C297.096 869.1 306.553 861.174 317.999 858.681C319.553 858.343 320.089 858.013 320.949 856.685C320.965 853.992 319.407 851.804 318.152 849.502Z"/>
	<defs>
		<linearGradient id="gradient_0" gradientUnits="userSpaceOnUse" x1="604.76691" y1="985.05939" x2="711.51599" y2="192.21135">
			<stop offset="0" stop-color="#054259"/>
			<stop offset="1" stop-color="#24828C"/>
		</linearGradient>
	</defs>
	<path fill="url(#gradient_0)" d="M801.607 200.058C811.911 205.402 833.171 230.15 842.656 239.707L914.439 311.67C926.035 323.321 937.981 334.608 949.525 346.305C954.099 350.94 959.006 355.508 963.181 360.494C964.031 390.066 963.443 419.805 963.465 449.395L963.162 654.11L963.412 771.651C963.375 791.695 964.765 819.402 961.133 838.374Q960.634 841.066 960.038 843.738Q959.441 846.41 958.749 849.059Q958.057 851.707 957.27 854.329Q956.482 856.951 955.601 859.543Q954.719 862.135 953.745 864.693Q952.771 867.252 951.704 869.773Q950.638 872.295 949.482 874.776Q948.325 877.258 947.08 879.696Q945.835 882.134 944.502 884.526Q943.17 886.917 941.752 889.259Q940.334 891.601 938.833 893.89Q937.331 896.179 935.748 898.413Q934.165 900.646 932.502 902.821Q930.839 904.996 929.099 907.11Q927.359 909.223 925.543 911.272Q923.728 913.322 921.84 915.304C893.03 945.857 854.238 962.224 812.424 963.441C795.699 963.928 778.858 963.551 762.122 963.549L664.646 963.377L432.507 963.172C428.93 955.273 377.298 908.225 367.24 898.333Q350.18 881.289 332.944 864.423C327.979 859.481 323.316 854.24 318.152 849.502C312.4 843.729 295.126 825.247 291.983 818.817C293.052 818.297 294.327 820.538 296.066 820.556C305.983 827.284 315.048 835.351 325.053 842.046C332.973 847.345 341.313 852.019 349.633 856.653C357.613 861.098 365.575 865.683 373.834 869.592C398.43 881.236 426.244 889.989 453 894.903Q457.064 895.637 461.146 896.272Q465.227 896.906 469.322 897.441Q473.417 897.976 477.525 898.41Q481.632 898.845 485.748 899.179Q489.865 899.513 493.988 899.747Q498.112 899.981 502.24 900.114Q506.368 900.247 510.498 900.279Q514.628 900.311 518.758 900.242Q522.887 900.173 527.014 900.004Q531.141 899.834 535.262 899.564Q539.383 899.294 543.497 898.924Q547.61 898.553 551.713 898.082Q555.816 897.611 559.907 897.04Q563.997 896.469 568.073 895.799Q572.148 895.128 576.206 894.358Q580.264 893.588 584.301 892.719Q588.339 891.851 592.355 890.884Q596.37 889.917 600.36 888.852Q604.351 887.787 608.314 886.625Q612.278 885.464 616.211 884.205Q620.145 882.947 624.047 881.593Q627.949 880.24 631.817 878.791Q635.685 877.342 639.516 875.8Q643.347 874.257 647.14 872.621Q650.932 870.985 654.683 869.258Q658.435 867.53 662.143 865.711Q665.851 863.892 669.513 861.983Q673.176 860.074 676.791 858.077Q680.406 856.079 683.971 853.994Q687.536 851.909 691.049 849.737Q694.562 847.565 698.021 845.308Q701.48 843.052 704.883 840.711C776.823 791.034 829.925 712.839 845.583 626.354Q846.187 622.907 846.719 619.449Q847.251 615.991 847.71 612.522Q848.169 609.053 848.556 605.575Q848.942 602.097 849.255 598.612Q849.568 595.127 849.807 591.636Q850.047 588.145 850.213 584.65Q850.38 581.155 850.472 577.657Q850.565 574.159 850.584 570.66Q850.604 567.161 850.549 563.662Q850.495 560.163 850.368 556.666Q850.24 553.169 850.039 549.676Q849.837 546.183 849.563 542.694Q849.288 539.206 848.941 535.724Q848.593 532.242 848.172 528.769Q847.751 525.295 847.258 521.831Q846.764 518.367 846.197 514.914Q845.631 511.461 844.992 508.02Q844.353 504.58 843.642 501.154Q842.932 497.728 842.149 494.317Q841.366 490.907 840.512 487.513Q839.657 484.12 838.732 480.746Q837.807 477.371 836.81 474.017Q835.814 470.662 834.748 467.329Q833.682 463.997 832.546 460.687Q831.41 457.378 830.204 454.093Q828.999 450.808 827.725 447.549Q826.45 444.29 825.108 441.058Q823.766 437.827 822.356 434.624Q820.946 431.422 819.469 428.25Q817.992 425.077 816.449 421.937Q814.906 418.797 813.297 415.689Q811.688 412.582 810.014 409.509C803.685 397.84 796.514 386.889 788.961 375.984C792.644 368.282 797.307 360.884 801.386 353.375C811.257 335.203 821.249 314.503 825.116 294.014C831.368 260.883 820.038 227.328 801.607 200.058Z"/>
	<defs>
		<linearGradient id="gradient_1" gradientUnits="userSpaceOnUse" x1="526.18719" y1="859.83606" x2="493.78531" y2="51.168442">
			<stop offset="0" stop-color="#176A79"/>
			<stop offset="1" stop-color="#43BDC2"/>
		</linearGradient>
	</defs>
	<path fill="url(#gradient_1)" d="M71.1976 864.675C70.5785 861.676 69.2824 858.529 68.3919 855.567C66.0612 847.815 63.661 839.629 62.6019 831.6C61.4235 822.668 61.7526 813.219 61.6332 804.206Q61.3638 779.049 61.3553 753.89L61.3557 597.305L61.4504 208.176C61.6296 169.605 80.1117 131.824 107.31 104.958C127.59 84.9249 155.231 69.531 183.407 64.424C198.21 61.7409 212.725 61.9723 227.69 61.9868L262.331 61.8927L382.801 61.7986L818.163 61.9338C825.944 61.9883 833.195 63.3467 840.792 64.9171C871.323 71.2287 897.545 85.7632 919.346 108.072Q920.513 109.25 921.654 110.453Q922.795 111.656 923.91 112.884Q925.025 114.111 926.113 115.363Q927.201 116.614 928.261 117.889Q929.321 119.164 930.354 120.462Q931.386 121.759 932.39 123.079Q933.394 124.399 934.369 125.74Q935.344 127.082 936.289 128.444Q937.235 129.806 938.151 131.189Q939.066 132.571 939.952 133.973Q940.837 135.375 941.692 136.796Q942.547 138.217 943.37 139.656Q944.194 141.096 944.986 142.552Q945.778 144.009 946.538 145.483Q947.298 146.957 948.026 148.446Q948.755 149.936 949.45 151.442Q950.145 152.947 950.808 154.467Q951.47 155.987 952.1 157.521Q952.729 159.056 953.325 160.603Q953.92 162.151 954.482 163.711Q955.044 165.271 955.572 166.843Q956.1 168.415 956.594 169.998Q957.087 171.581 957.546 173.174Q958.005 174.768 958.43 176.371Q958.854 177.974 959.243 179.586Q959.633 181.197 959.987 182.817Q960.341 184.437 960.66 186.065Q960.979 187.692 961.262 189.326Q961.545 190.96 961.793 192.599Q962.041 194.239 962.253 195.883Q962.465 197.528 962.641 199.177Q962.818 200.826 962.958 202.478C963.611 209.975 963.161 217.719 963.16 225.251L963.165 267.96C963.136 298.802 963.485 329.654 963.181 360.494C959.006 355.508 954.099 350.94 949.525 346.305C937.981 334.608 926.035 323.321 914.439 311.67L842.656 239.707C833.171 230.15 811.911 205.402 801.607 200.058C801.468 199.937 801.323 199.822 801.19 199.694C798.409 197.02 796.2 193.166 793.735 190.144C790.669 186.385 786.991 182.923 783.444 179.616C759.544 157.329 725.252 144.68 692.828 144.329Q691.157 144.314 689.487 144.34Q687.816 144.365 686.147 144.432Q684.477 144.498 682.81 144.606Q681.143 144.713 679.479 144.861Q677.815 145.009 676.154 145.197Q674.494 145.385 672.839 145.614Q671.184 145.843 669.536 146.112Q667.887 146.382 666.245 146.691Q664.603 147 662.969 147.35Q661.335 147.699 659.711 148.088Q658.086 148.477 656.471 148.906Q654.856 149.335 653.253 149.803Q651.649 150.271 650.057 150.778Q648.465 151.285 646.886 151.83Q645.307 152.376 643.741 152.96Q642.176 153.544 640.625 154.166Q639.075 154.788 637.54 155.448Q636.005 156.108 634.486 156.805Q632.968 157.502 631.467 158.235Q629.966 158.969 628.484 159.74Q627.001 160.51 625.538 161.316Q624.074 162.122 622.631 162.964Q621.188 163.806 619.766 164.682Q618.343 165.559 616.943 166.47Q615.543 167.381 614.165 168.326Q612.787 169.271 611.433 170.249Q610.078 171.228 608.748 172.239Q607.418 173.25 606.113 174.293Q604.808 175.337 603.529 176.411Q602.25 177.486 600.998 178.592Q599.745 179.698 598.52 180.834Q597.295 181.969 596.098 183.135C580.354 198.479 570.844 215.945 562.676 236.136C549.718 233.366 536.219 232.428 523.006 231.837C454.205 228.759 386.818 249.627 329.291 286.96Q325.902 289.165 322.567 291.453Q319.232 293.74 315.954 296.108Q312.676 298.475 309.457 300.922Q306.237 303.369 303.078 305.893Q299.919 308.418 296.822 311.018Q293.725 313.619 290.693 316.294Q287.66 318.969 284.694 321.717Q281.727 324.465 278.829 327.284Q275.93 330.103 273.1 332.992Q270.271 335.881 267.513 338.839Q264.754 341.796 262.069 344.819Q259.383 347.842 256.772 350.93Q254.161 354.017 251.626 357.168Q249.091 360.318 246.633 363.529Q244.175 366.74 241.796 370.01Q239.417 373.28 237.118 376.607Q234.819 379.933 232.602 383.315Q230.385 386.697 228.25 390.131Q226.116 393.566 224.066 397.052Q222.016 400.537 220.051 404.072Q218.086 407.606 216.208 411.187Q214.33 414.768 212.54 418.394Q210.749 422.02 209.048 425.688Q207.346 429.356 205.734 433.065Q204.122 436.773 202.601 440.52Q201.079 444.267 199.65 448.049Q198.22 451.832 196.883 455.648Q195.545 459.464 194.301 463.312Q193.057 467.16 191.907 471.036Q190.757 474.913 189.702 478.817Q188.647 482.72 187.686 486.649Q186.726 490.577 185.862 494.527Q185.001 498.566 184.239 502.626Q183.477 506.685 182.815 510.761Q182.153 514.838 181.59 518.93Q181.028 523.021 180.567 527.126Q180.105 531.23 179.744 535.344Q179.383 539.458 179.123 543.58Q178.863 547.702 178.704 551.829Q178.545 555.956 178.488 560.086Q178.43 564.216 178.473 568.346Q178.517 572.475 178.662 576.603Q178.806 580.731 179.052 584.853Q179.298 588.976 179.645 593.092Q179.991 597.207 180.439 601.313Q180.886 605.419 181.434 609.512Q181.982 613.606 182.63 617.685Q183.279 621.764 184.026 625.825Q184.774 629.887 185.622 633.93Q186.469 637.972 187.415 641.992Q188.361 646.012 189.405 650.008Q190.449 654.004 191.591 657.973Q192.733 661.942 193.972 665.882Q195.211 669.822 196.546 673.731Q197.881 677.639 199.311 681.514Q200.741 685.388 202.266 689.226Q203.791 693.065 205.41 696.864Q207.028 700.664 208.739 704.423Q210.45 708.182 212.253 711.898Q214.056 715.614 215.949 719.284Q217.842 722.955 219.825 726.578Q221.807 730.201 223.878 733.775Q225.949 737.348 228.107 740.87Q230.265 744.391 232.508 747.859C244.087 765.7 257.793 783.181 272.574 798.476C276.276 802.307 294.953 818.791 296.066 820.556C294.327 820.538 293.052 818.297 291.983 818.817C295.126 825.247 312.4 843.729 318.152 849.502C319.407 851.804 320.965 853.992 320.949 856.685C320.089 858.013 319.553 858.343 317.999 858.681C306.553 861.174 297.096 869.1 285.101 869.734L284.464 868.752C281.416 868.857 277.284 869.478 274.321 868.746C272.236 868.231 270.372 866.921 268.381 866.141C264.67 864.687 258.951 865.29 255.625 867.219C255.207 867.461 254.077 867.991 253.638 868.081C251.942 868.431 248.891 867.119 247.089 866.948C244.155 866.67 241.354 868.057 238.294 867.737C237.035 866.879 235.276 864.487 234.205 864.03C231.334 862.805 221.962 863.23 218.19 862.672C215.85 862.326 213.912 861.135 211.702 860.43C211.186 862.401 210.253 863.286 208.507 864.29C207.703 864.753 207.498 864.818 206.535 864.921L203.236 861.53C202.043 861.761 201.809 862.383 200.84 862.846C200.585 862.968 200.29 862.978 200.016 863.045C198.847 861.705 198.074 860.14 196.195 860.092C192.822 860.006 189.382 861.147 185.978 860.949C182.515 860.747 179.244 859.091 175.793 858.602C175.532 858.565 155.453 859.326 154.338 859.448C153.218 859.572 152.324 860.119 151.284 860.462C147.38 861.75 136.736 857.841 131.591 858.088C128.75 858.224 124.955 860.188 122.198 861.154L122.037 861.866C121.872 862.572 121.683 863.253 121.47 863.945C117.931 865.941 114.573 865.114 111.083 866.31C109.326 866.913 107.118 868.824 105.48 869.14C104.799 869.271 103.037 868.694 102.306 868.479C95.3914 866.448 95.3877 865.507 87.6342 865.463C86.2045 865.455 84.6444 865.215 83.3434 865.825C83.2347 867.323 83.4398 868.066 82.069 868.993C81.0786 869.662 79.0955 869.973 77.9305 870.476C75.0785 869.628 73.381 863.915 71.8071 863.985L71.1976 864.675Z"/>
	<path fill="#F7F6F6" d="M562.676 236.136C570.844 215.945 580.354 198.479 596.098 183.135Q597.295 181.969 598.52 180.834Q599.745 179.698 600.998 178.592Q602.25 177.486 603.529 176.411Q604.808 175.337 606.113 174.293Q607.418 173.25 608.748 172.239Q610.078 171.228 611.433 170.249Q612.787 169.271 614.165 168.326Q615.543 167.381 616.943 166.47Q618.343 165.559 619.766 164.682Q621.188 163.806 622.631 162.964Q624.074 162.122 625.538 161.316Q627.001 160.51 628.484 159.74Q629.966 158.969 631.467 158.235Q632.968 157.502 634.486 156.805Q636.005 156.108 637.54 155.448Q639.075 154.788 640.625 154.166Q642.176 153.544 643.741 152.96Q645.307 152.376 646.886 151.83Q648.465 151.285 650.057 150.778Q651.649 150.271 653.253 149.803Q654.856 149.335 656.471 148.906Q658.086 148.477 659.711 148.088Q661.335 147.699 662.969 147.35Q664.603 147 666.245 146.691Q667.887 146.382 669.536 146.112Q671.184 145.843 672.839 145.614Q674.494 145.385 676.154 145.197Q677.815 145.009 679.479 144.861Q681.143 144.713 682.81 144.606Q684.477 144.498 686.147 144.432Q687.816 144.365 689.487 144.34Q691.157 144.314 692.828 144.329C725.252 144.68 759.544 157.329 783.444 179.616C786.991 182.923 790.669 186.385 793.735 190.144C796.2 193.166 798.409 197.02 801.19 199.694C801.323 199.822 801.468 199.937 801.607 200.058C820.038 227.328 831.368 260.883 825.116 294.014C821.249 314.503 811.257 335.203 801.386 353.375C797.307 360.884 792.644 368.282 788.961 375.984C796.514 386.889 803.685 397.84 810.014 409.509Q811.688 412.582 813.297 415.689Q814.906 418.797 816.449 421.937Q817.992 425.078 819.469 428.25Q820.946 431.422 822.356 434.624Q823.766 437.827 825.108 441.058Q826.45 444.29 827.725 447.549Q828.999 450.808 830.204 454.093Q831.41 457.378 832.546 460.687Q833.682 463.997 834.748 467.329Q835.814 470.662 836.811 474.017Q837.807 477.371 838.732 480.746Q839.657 484.12 840.512 487.513Q841.366 490.907 842.149 494.317Q842.932 497.728 843.642 501.154Q844.353 504.58 844.992 508.02Q845.631 511.461 846.197 514.914Q846.764 518.367 847.258 521.831Q847.751 525.295 848.172 528.769Q848.593 532.242 848.941 535.724Q849.289 539.206 849.563 542.694Q849.838 546.183 850.039 549.676Q850.24 553.169 850.368 556.666Q850.495 560.163 850.55 563.662Q850.604 567.161 850.584 570.66Q850.565 574.159 850.472 577.657Q850.38 581.155 850.213 584.65Q850.047 588.145 849.807 591.636Q849.568 595.127 849.255 598.612Q848.942 602.097 848.556 605.575Q848.169 609.053 847.71 612.522Q847.251 615.991 846.719 619.449Q846.187 622.907 845.583 626.354C829.925 712.839 776.823 791.034 704.883 840.711Q701.48 843.052 698.021 845.308Q694.562 847.565 691.049 849.737Q687.536 851.909 683.971 853.994Q680.406 856.079 676.791 858.077Q673.176 860.074 669.513 861.983Q665.851 863.892 662.143 865.711Q658.435 867.53 654.683 869.258Q650.932 870.985 647.139 872.621Q643.347 874.257 639.516 875.8Q635.685 877.342 631.817 878.791Q627.949 880.24 624.047 881.593Q620.145 882.947 616.211 884.205Q612.278 885.464 608.314 886.625Q604.351 887.787 600.36 888.852Q596.37 889.917 592.354 890.884Q588.339 891.851 584.301 892.719Q580.264 893.588 576.206 894.358Q572.148 895.128 568.073 895.799Q563.997 896.469 559.907 897.04Q555.816 897.611 551.713 898.082Q547.61 898.553 543.497 898.924Q539.383 899.294 535.262 899.564Q531.141 899.834 527.014 900.004Q522.887 900.173 518.758 900.242Q514.628 900.311 510.498 900.279Q506.368 900.247 502.24 900.114Q498.112 899.981 493.988 899.747Q489.865 899.513 485.748 899.179Q481.632 898.845 477.525 898.41Q473.417 897.976 469.322 897.441Q465.227 896.906 461.146 896.272Q457.064 895.637 453 894.903C426.244 889.989 398.43 881.236 373.834 869.592C365.575 865.683 357.613 861.098 349.633 856.653C341.313 852.019 332.973 847.345 325.053 842.046C315.048 835.351 305.983 827.284 296.066 820.556C294.953 818.791 276.276 802.307 272.574 798.476C257.793 783.181 244.087 765.7 232.508 747.859Q230.265 744.391 228.107 740.87Q225.949 737.348 223.878 733.775Q221.807 730.201 219.825 726.578Q217.842 722.955 215.949 719.284Q214.056 715.614 212.253 711.898Q210.45 708.182 208.739 704.423Q207.028 700.664 205.41 696.864Q203.791 693.065 202.266 689.226Q200.741 685.388 199.311 681.513Q197.881 677.639 196.546 673.731Q195.211 669.822 193.972 665.882Q192.733 661.942 191.591 657.973Q190.449 654.004 189.405 650.008Q188.361 646.012 187.415 641.992Q186.469 637.972 185.622 633.93Q184.774 629.887 184.026 625.825Q183.279 621.764 182.63 617.685Q181.982 613.606 181.434 609.512Q180.886 605.419 180.439 601.313Q179.991 597.207 179.645 593.092Q179.298 588.976 179.052 584.853Q178.806 580.73 178.662 576.603Q178.517 572.475 178.473 568.346Q178.43 564.216 178.488 560.086Q178.545 555.956 178.704 551.829Q178.863 547.702 179.123 543.58Q179.383 539.458 179.744 535.344Q180.105 531.23 180.567 527.126Q181.028 523.021 181.59 518.93Q182.153 514.838 182.815 510.761Q183.477 506.685 184.239 502.626Q185.001 498.566 185.862 494.527Q186.726 490.577 187.686 486.649Q188.647 482.72 189.702 478.817Q190.757 474.913 191.907 471.036Q193.057 467.16 194.301 463.312Q195.545 459.464 196.883 455.648Q198.22 451.832 199.65 448.049Q201.079 444.267 202.601 440.52Q204.122 436.773 205.734 433.065Q207.346 429.356 209.048 425.688Q210.749 422.02 212.54 418.394Q214.33 414.768 216.208 411.187Q218.086 407.606 220.051 404.072Q222.016 400.537 224.066 397.052Q226.116 393.566 228.25 390.131Q230.385 386.697 232.602 383.315Q234.819 379.933 237.118 376.607Q239.417 373.28 241.796 370.01Q244.175 366.74 246.633 363.529Q249.091 360.318 251.626 357.168Q254.161 354.017 256.772 350.93Q259.383 347.842 262.069 344.819Q264.754 341.796 267.513 338.839Q270.271 335.881 273.1 332.992Q275.93 330.103 278.829 327.284Q281.727 324.465 284.694 321.717Q287.66 318.969 290.693 316.294Q293.725 313.619 296.822 311.018Q299.919 308.418 303.078 305.893Q306.237 303.369 309.457 300.922Q312.676 298.475 315.954 296.108Q319.232 293.74 322.567 291.453Q325.902 289.165 329.291 286.96C386.818 249.627 454.205 228.759 523.006 231.837C536.219 232.428 549.718 233.366 562.676 236.136Z"/>
	<path fill="#256AA1" d="M346.521 571.474Q375.069 571.779 403.618 571.516C400.741 575.337 396.711 578.574 393.278 581.907L376.352 598.634Q363.346 612.013 350.13 625.186C347.797 607.437 347.3 589.34 346.521 571.474Z"/>
	<path fill="#256AA1" d="M442.778 260.565C443.294 260.517 443.876 260.648 444.392 260.71C443.948 261.488 425.152 275.618 422.143 278.317C397.772 300.171 371.654 338.725 360.534 369.351C347.087 364.884 333.652 358.27 321.251 351.427C313.946 347.462 307.076 342.911 300.923 337.307C310.852 326.221 323.068 317.006 335.303 308.64C369.219 285.45 402.91 270.343 442.778 260.565Z"/>
	<path fill="#256AA1" d="M776.398 394.884C781.418 400.078 788.132 413.264 791.62 419.926C813.19 461.12 823.382 495.153 828.221 541.366C821.991 535.792 816.614 529.068 810.725 523.118C799.268 511.541 787.441 500.344 775.999 488.75C766.954 479.49 755.413 465.857 745.758 457.985C733.47 470.78 720.473 483.862 706.871 495.227C713.037 485.363 721.089 476.599 727.849 467.112Q753.413 431.865 776.398 394.884Z"/>
	<path fill="#256AA1" d="M523.086 253.427C534.502 254.348 546.387 255.943 557.461 258.83C556.956 264.376 556.447 269.948 556.677 275.523C558.382 316.911 582.681 353.271 602.859 387.963L595.889 389.472C573.533 394.027 546.245 396.758 523.471 397.227L523.086 253.427Z"/>
	<path fill="#256AA1" d="M502.801 254.004C504.009 253.881 503.477 253.751 504.421 254.28C505.124 270.766 504.528 287.459 504.513 303.967L504.478 397.056C468.152 396.908 432.159 390.58 397.072 381.601C390.904 379.884 384.789 378.116 378.721 376.069C382.934 364.718 390.563 350.281 396.476 339.546C413.388 308.839 439.909 279.419 472.007 264.369C481.846 259.756 492.396 257.013 502.801 254.004Z"/>
	<path fill="#4A9A64" d="M714.122 521.876C714.235 521.964 714.362 522.036 714.46 522.14C717.217 525.072 718.373 549.928 718.589 555.235C726.128 547.767 732.922 537.667 739.551 529.275C747.217 536.975 753.727 546.248 760.65 554.642C765.569 544.58 769.564 534.002 774.356 523.861C778.07 527.243 781.43 531.1 785.011 534.633C799.645 549.075 813.794 564.012 828.769 578.101C827.499 605.237 823.826 628.451 816.531 654.524C813.274 665.16 809.766 675.684 805.049 685.775C791.49 672.902 778.795 659.029 765.559 645.815L677.029 557.226C690.122 546.353 701.567 533.36 714.122 521.876Z"/>
	<path fill="#256AA1" d="M612.562 403.104C615.857 406.037 618.929 412.029 621.413 415.778C627.121 424.389 632.743 433.093 638.726 441.515C655.3 464.845 672.825 487.409 689.866 510.387C685.257 514.816 680.444 519.027 675.865 523.495C670.451 528.78 665.221 534.373 659.49 539.312C638.638 518.492 618.132 497.261 596.925 476.807L591.44 471.782Q575.711 487.338 559.753 502.659L523.311 538.518L522.99 414.583C552.384 414.429 584.207 410.94 612.562 403.104Z"/>
	<path fill="#256AA1" d="M199.321 571.545L269.968 571.547C288.793 571.542 307.685 571.244 326.498 571.826C327.431 589.018 327.883 606.202 329.389 623.363C329.975 630.04 330.395 636.878 331.745 643.451C317.221 657.659 303.216 672.601 289.028 687.165C274.679 701.762 259.862 716.056 245.806 730.916C241.264 724.19 237.753 716.373 234.063 709.128C212.218 666.225 199.926 619.758 199.321 571.545Z"/>
	<path fill="#256AA1" d="M372.289 392.239C383.775 394.938 394.929 399.289 406.465 402.03Q418.524 404.83 430.705 407.042Q442.885 409.254 455.159 410.871Q467.433 412.489 479.771 413.509Q492.108 414.529 504.481 414.948C504.437 457.028 505.142 499.181 504.619 541.249C497.655 534.762 474.962 510.026 469.192 506.88L467.845 507.544C451.352 522.195 435.692 538.193 420.092 553.797C411.15 553.401 402.133 553.677 393.182 553.723L346.479 553.848Q346.451 543.574 346.837 533.307Q347.222 523.04 348.021 512.796Q348.82 502.553 350.03 492.35Q351.241 482.148 352.861 472.002Q354.481 461.856 356.509 451.784Q358.536 441.711 360.968 431.729Q363.399 421.746 366.231 411.87Q369.062 401.993 372.289 392.239Z"/>
	<path fill="#256AA1" d="M286.31 350.311C289.755 350.942 307.329 363.378 312.003 366.005C325.265 373.458 339.507 379.252 353.373 385.474C351.413 392.482 348.925 399.351 346.883 406.34C343.825 416.81 341.319 427.505 338.933 438.146C330.908 473.936 326.74 516.634 326.525 553.562L266.25 553.562Q232.769 553.235 199.296 554.004C199.504 543.946 200.882 533.789 202.243 523.833Q202.664 520.8 203.145 517.775Q203.626 514.75 204.166 511.736Q204.706 508.721 205.305 505.717Q205.903 502.714 206.561 499.723Q207.218 496.732 207.934 493.754Q208.65 490.776 209.424 487.813Q210.197 484.85 211.029 481.902Q211.861 478.955 212.75 476.024Q213.64 473.093 214.586 470.181Q215.532 467.268 216.536 464.374Q217.539 461.481 218.599 458.607Q219.658 455.734 220.774 452.882Q221.89 450.03 223.061 447.2Q224.232 444.37 225.459 441.564Q226.685 438.757 227.966 435.976Q229.247 433.194 230.583 430.438Q231.918 427.682 233.307 424.952Q234.696 422.222 236.138 419.521Q237.58 416.819 239.075 414.146Q240.57 411.473 242.116 408.829Q243.663 406.186 245.261 403.573Q246.859 400.961 248.508 398.38Q250.157 395.799 251.856 393.251Q253.555 390.703 255.304 388.189Q257.053 385.675 258.85 383.195Q260.648 380.715 262.494 378.272Q264.339 375.828 266.232 373.42Q268.126 371.013 270.065 368.643Q272.005 366.273 273.991 363.942Q275.977 361.61 278.008 359.318Q280.04 357.026 282.115 354.774Q284.191 352.522 286.31 350.311Z"/>
	<path fill="#4A9A64" d="M563.964 535.819C564.081 535.872 564.223 535.889 564.315 535.978C566.047 537.654 568.898 559.73 570.485 564.15C579.158 558.033 586.014 549.683 594.467 543.347C600.662 552.179 607.869 560.867 615.347 568.64C617.551 559.022 619.178 549.147 620.847 539.42C628.448 545.773 635.457 553.676 642.424 560.745L674.879 593.166L792.946 711.858C786.303 723.355 779.434 734.384 771.916 745.333C763.291 758.113 752.918 769.726 743.02 781.517C729.728 766.926 715.604 752.943 701.712 738.926Q670.772 707.313 639.226 676.305L530.989 566.609C536.201 561.43 541.868 556.659 547.283 551.693C552.939 546.506 558.372 541.075 563.964 535.819Z"/>
	<path fill="#1D4167" d="M687.349 157.218C715.219 155.278 744.39 164.811 766.234 182.033C792.713 202.91 810.066 231.969 813.973 265.727Q814.474 270.001 814.561 274.304Q814.648 278.607 814.322 282.898Q813.996 287.189 813.258 291.429Q812.521 295.669 811.38 299.819C802.764 331.316 784.905 360.313 767.631 387.687Q749.531 416.982 729.413 444.928C718.429 460.454 707.487 476.113 695.613 490.977L692.423 494.887C681.074 481.344 671.048 466.29 660.723 451.94C635.611 417.038 610.711 381.462 590.929 343.219C586.147 333.974 581.251 324.71 577.501 314.985C573.183 303.789 570.753 292.673 570.04 280.701C568.22 250.146 578.371 221.792 598.804 198.915C622.162 172.764 652.605 159.288 687.349 157.218Z"/>
	<path fill="#F7F6F6" d="M682.556 174.703C706.713 171.147 734.951 180.497 754.249 194.772C776.927 211.547 792.387 235.92 796.5 263.93C798.066 274.591 797.735 285.276 794.943 295.712C789.676 315.4 778.682 334.39 768.581 351.94C746.826 389.739 722.489 425.228 696.44 460.172L692.689 465.181C688.976 461.237 685.835 456.573 682.586 452.242Q673.976 440.843 665.657 429.231C641.066 394.723 592.057 325.745 587.321 284.41C584.552 260.24 592.219 234.228 607.419 215.266C626.375 191.616 652.501 177.901 682.556 174.703Z"/>
	<path fill="#1D4167" d="M686.628 235.658C697.346 234.704 707.793 236.838 716.911 242.661Q717.912 243.291 718.879 243.97Q719.847 244.65 720.779 245.377Q721.711 246.105 722.605 246.878Q723.499 247.651 724.354 248.469Q725.208 249.286 726.02 250.145Q726.832 251.005 727.6 251.904Q728.367 252.803 729.089 253.74Q729.81 254.676 730.484 255.648Q731.157 256.62 731.781 257.624Q732.405 258.629 732.977 259.663Q733.549 260.698 734.069 261.76Q734.588 262.822 735.054 263.909Q735.519 264.996 735.929 266.105Q736.339 267.214 736.693 268.342Q737.047 269.47 737.343 270.614Q737.64 271.759 737.878 272.917C740.328 284.777 737.761 296.665 731.125 306.752C723.552 318.263 712.402 325.138 699.037 327.911C698.877 327.939 698.717 327.968 698.556 327.994C686.181 329.991 673.43 326.114 663.439 318.757C653.789 311.651 647.492 300.002 645.772 288.221Q645.613 287.108 645.51 285.989Q645.406 284.869 645.358 283.746Q645.309 282.623 645.316 281.499Q645.323 280.375 645.386 279.252Q645.449 278.13 645.567 277.012Q645.684 275.894 645.857 274.783Q646.03 273.672 646.258 272.571Q646.485 271.47 646.767 270.382Q647.048 269.294 647.383 268.22Q647.718 267.147 648.106 266.092Q648.493 265.037 648.932 264.002Q649.371 262.967 649.86 261.955Q650.35 260.943 650.889 259.956Q651.428 258.969 652.015 258.011Q652.601 257.052 653.235 256.123Q653.868 255.194 654.547 254.298C662.509 243.622 673.523 237.549 686.628 235.658Z"/>
	<path fill="#67B9EC" d="M688.041 252.652C694.884 252.217 700.667 252.839 706.704 256.375Q707.338 256.747 707.954 257.149Q708.569 257.552 709.163 257.984Q709.758 258.417 710.33 258.879Q710.902 259.34 711.451 259.83Q712 260.319 712.524 260.835Q713.047 261.351 713.545 261.893Q714.042 262.434 714.512 263Q714.982 263.565 715.424 264.153Q715.865 264.741 716.277 265.35Q716.688 265.96 717.069 266.588Q717.45 267.217 717.8 267.864Q718.149 268.511 718.465 269.175Q718.782 269.838 719.066 270.517Q719.349 271.195 719.598 271.887Q719.848 272.579 720.063 273.282Q720.277 273.985 720.457 274.698Q720.628 275.407 720.764 276.124Q720.9 276.841 721.001 277.563Q721.101 278.286 721.166 279.013Q721.231 279.74 721.26 280.469Q721.289 281.198 721.282 281.927Q721.275 282.657 721.232 283.385Q721.189 284.113 721.11 284.839Q721.031 285.564 720.917 286.284Q720.802 287.005 720.653 287.719Q720.503 288.433 720.318 289.139Q720.133 289.845 719.914 290.541Q719.694 291.236 719.441 291.92Q719.187 292.605 718.901 293.275Q718.614 293.946 718.294 294.602Q717.975 295.258 717.623 295.897Q717.272 296.537 716.889 297.158C712.435 304.354 705.225 309.098 697.041 310.918C689.551 311.994 681.924 310.87 675.54 306.615C668.859 302.163 664.083 294.663 662.799 286.745C661.527 278.903 663.738 270.663 668.326 264.231C673.175 257.434 679.958 253.991 688.041 252.652Z"/>
	<path fill="#046C5D" d="M442.537 568.397C444.372 569.743 449.13 597.419 449.881 601.185C456.66 593.519 463.579 585.904 469.733 577.72C475.305 585.185 480.546 592.923 486.461 600.124C490.072 589.797 493.51 579.365 497.482 569.171L631.881 703.54C639.372 710.916 647.133 718.062 654.456 725.601C658.853 730.13 662.805 735.245 667.486 739.474C671.85 743.417 676.965 744.459 680.846 749.341C677.021 751.025 673.099 751.983 669.064 753.003C674.404 756.948 680.987 759.162 686.627 762.701C701.838 772.243 714.22 784.406 726.283 797.554C720.056 803.939 712.517 809.596 705.462 815.033C671.591 841.142 638.356 856.329 597.77 869.049C565.756 878.519 512.862 880.962 480.035 877.888C412.646 871.576 346.862 840.661 297.695 794.202C283.639 780.921 271.48 765.959 259.168 751.096L325.889 684.466C331.439 679.019 337.509 674.123 343.004 668.622C347.952 663.671 352.295 658.159 357.223 653.172Q399.498 610.401 442.537 568.397Z"/>
</svg>
