<?xml version="1.0" encoding="utf-8" ?>
<svg xmlns="http://www.w3.org/2000/svg" xmlns:xlink="http://www.w3.org/1999/xlink" width="963" height="963">
	<path fill="#020002" fill-opacity="0.035294119" transform="scale(0.940394 0.940394)" d="M985.162 0L1014.69 0C1014.03 0.160608 1013.37 0.317068 1012.7 0.402243C1009.24 0.841274 986.978 1.30474 985.162 0Z"/>
	<path fill="#215485" transform="scale(0.940394 0.940394)" d="M835.128 374.009C847.8 382.183 857.521 394.812 866.253 406.898C869.217 411.001 871.923 415.54 875.258 419.342C883.161 428.351 892.434 436.583 901.089 444.873Q919.011 462.348 937.147 479.6C943.714 485.85 955.293 498.686 962.416 503.074L962.184 721.082C962.26 748.26 962.532 775.354 962.084 802.538C961.888 814.444 962.724 826.464 960.495 838.22C955.131 866.514 942.711 895.388 922.189 916.129C895.815 942.782 860.912 959.6 823.006 959.63L364.359 959.372C319.898 959.311 275.454 960.292 230.998 959.44L201.747 958.897C195.221 958.744 188.758 959.002 182.313 957.819C176.3 956.716 170.552 954.855 164.763 952.931C141.369 945.154 121.729 932.971 104.384 915.403C83.8396 894.594 72.8923 867.922 66.9663 839.791C67.8255 840.785 67.8279 841.582 68.3072 842.703C69.179 844.742 70.4531 846.607 71.3114 848.676C73.0482 852.863 74.185 857.311 76.1371 861.41C84.1448 878.225 95.8852 893.769 109.1 906.861C124.895 922.509 148.194 936.307 169.988 941.426C189.914 946.106 210.58 945.376 230.896 945.379L285.734 945.342L450.289 945.317C440.785 936.739 432.093 926.76 423.122 917.606L375.874 869.805C348.927 842.284 320.869 815.782 293.928 788.244C291.894 786.165 286.775 781.794 286.112 779.057C360.082 832.453 447.865 855.248 538.276 840.701Q542.258 840.079 546.222 839.354Q550.186 838.629 554.13 837.801Q558.075 836.974 561.996 836.045Q565.917 835.116 569.814 834.085Q573.71 833.055 577.578 831.925Q581.446 830.794 585.284 829.563Q589.121 828.333 592.926 827.004Q596.73 825.675 600.499 824.247Q604.268 822.82 607.998 821.296Q611.729 819.772 615.419 818.151Q619.109 816.531 622.756 814.816Q626.402 813.101 630.004 811.292Q633.605 809.483 637.158 807.581Q640.711 805.68 644.214 803.687Q647.717 801.694 651.167 799.611Q654.617 797.528 658.012 795.357C664.437 791.236 672.199 786.672 677.603 781.297L677.756 781.393C678.544 780.277 679.46 779.609 680.513 778.76C683.33 782.927 686.389 787.072 688.98 791.374C693.624 796.533 697.51 803.006 701.604 808.643C708.149 817.654 715.019 826.434 721.5 835.49L721.884 835.607C722.209 835.54 722.556 835.539 722.86 835.406C724.604 834.638 770.207 767.471 776.787 758.506C777.802 755.656 780.979 752.022 782.697 749.441L801.322 721.542C807.973 711.459 814.071 700.533 821.278 690.885C824.551 684.039 829.432 677.319 833.343 670.767C840.286 659.134 846.889 647.311 853.787 635.655C855.091 631.753 858.133 627.576 860.183 623.942C862.304 620.181 864.214 616.301 866.166 612.45C884.282 576.719 897.61 549.838 897.014 508.345Q897.002 506.539 896.952 504.734Q896.902 502.929 896.814 501.125Q896.727 499.321 896.602 497.52Q896.477 495.718 896.314 493.92Q896.152 492.121 895.952 490.326Q895.752 488.532 895.514 486.741Q895.277 484.951 895.002 483.166Q894.728 481.382 894.416 479.603Q894.104 477.824 893.756 476.052Q893.407 474.28 893.021 472.516Q892.636 470.752 892.214 468.996Q891.791 467.24 891.333 465.494Q890.874 463.747 890.379 462.01Q889.884 460.273 889.353 458.547Q888.822 456.821 888.255 455.107Q887.688 453.392 887.086 451.69Q886.483 449.987 885.845 448.298Q885.207 446.609 884.535 444.933Q883.862 443.257 883.154 441.595Q882.446 439.934 881.704 438.288Q880.962 436.641 880.186 435.011Q879.41 433.38 878.6 431.766Q877.79 430.152 876.946 428.556Q876.103 426.959 875.226 425.38Q874.35 423.801 873.44 422.241Q872.531 420.681 871.589 419.14Q870.648 417.599 869.674 416.078Q868.701 414.557 867.696 413.056Q866.691 411.556 865.655 410.077Q864.619 408.597 863.552 407.14Q862.486 405.683 861.389 404.248Q860.292 402.814 859.166 401.402C852.789 393.5 845.62 386.511 838.349 379.453C837.711 377.43 836.325 375.738 835.128 374.009Z"/>
	<path fill="#164069" transform="scale(0.940394 0.940394)" d="M680.513 778.76C683.33 782.927 686.389 787.072 688.98 791.374C683.464 790.166 681.125 785.469 677.756 781.393C678.544 780.277 679.46 779.609 680.513 778.76Z"/>
	<path fill="#164069" transform="scale(0.940394 0.940394)" d="M853.787 635.655C854.841 639.151 848.523 649.717 846.682 653.159C843.204 659.661 839.593 666.359 835.757 672.652C833.031 677.122 829.826 681.313 827.019 685.737C826.299 686.872 824.713 690.613 823.725 691.181C823.728 689.645 824.22 688.685 824.878 687.347C823.842 688.476 822.979 689.649 822.105 690.906C821.829 690.914 821.531 690.995 821.278 690.885C824.551 684.039 829.432 677.319 833.343 670.767C840.286 659.134 846.889 647.311 853.787 635.655Z"/>
	<path fill="#164069" transform="scale(0.940394 0.940394)" d="M776.787 758.506C776.82 759.153 776.879 759.378 776.641 760.074C775.436 763.599 754.299 793.157 750.553 798.516C748.921 800.851 746.89 803.032 745.741 805.652C748.703 802.317 751.955 798.689 754.313 794.908C755.694 792.694 758.328 789.057 760.665 787.857C756.204 793.626 751.71 799.486 747.448 805.404C743.979 810.22 725.337 838.876 722.265 839.96C721.096 838.852 720.73 838.204 720.196 836.684L720.47 835.784L721.5 835.49L721.884 835.607C722.209 835.54 722.556 835.539 722.86 835.406C724.604 834.638 770.207 767.471 776.787 758.506Z"/>
	<defs>
		<linearGradient id="gradient_0" gradientUnits="userSpaceOnUse" x1="479.1691" y1="960.02972" x2="530.40112" y2="42.220596">
			<stop offset="0" stop-color="#1C619C"/>
			<stop offset="1" stop-color="#357FB6"/>
		</linearGradient>
	</defs>
	<path fill="url(#gradient_0)" transform="scale(0.940394 0.940394)" d="M66.9663 839.791Q65.424 829.872 65.4779 819.833L65.1862 371.264L65.1803 250.537C65.2059 226.324 63.5359 196.728 67.9014 173.4C72.9308 146.523 88.2155 118.583 107.48 99.3052C127.502 79.2694 155.803 65.133 183.683 60.2333C196.022 58.0646 209.368 58.0892 221.877 58.0485Q242.845 58.0059 263.813 58.1802L390.495 58.3089L760.677 58.0472L804.758 58.119C812.971 58.1437 821.45 57.7566 829.629 58.4747C864.426 61.5301 895.926 75.4821 920.641 100.358C939.927 119.769 953.822 145.693 959.718 172.357C963.319 188.643 962.557 204.735 962.578 221.285L962.813 265.718Q963.263 384.397 962.416 503.074C955.293 498.686 943.714 485.85 937.147 479.6Q919.011 462.348 901.089 444.873C892.434 436.583 883.161 428.351 875.258 419.342C871.923 415.54 869.217 411.001 866.253 406.898C857.521 394.812 847.8 382.183 835.128 374.009C832.399 370.597 827.546 367.577 823.923 365.174C814.321 358.3 803.99 353.146 793.524 347.761C787.116 347.834 781.14 343.258 774.611 342.522L773.864 340.905C770.371 334.701 765.81 329.181 762.114 323.093L761.601 322.476C758.958 319.261 756.739 315.563 754.256 312.204C748.586 304.536 742.661 296.851 736.353 289.699C674.898 220.012 606.351 179.333 513.033 169.419C425.251 160.092 342.612 188.635 274.618 243.669C204.713 300.249 158.333 377.393 148.833 467.581C139.4 557.125 163.671 645.999 220.617 716.234Q229.756 727.51 239.776 738.01Q249.796 748.511 260.632 758.168C268.899 765.431 277.618 772.08 286.112 779.057C286.775 781.794 291.894 786.165 293.928 788.244C320.869 815.782 348.927 842.284 375.874 869.805L423.122 917.606C432.093 926.76 440.785 936.739 450.289 945.317L285.734 945.342L230.896 945.379C210.58 945.376 189.914 946.106 169.988 941.426C148.194 936.307 124.895 922.509 109.1 906.861C95.8852 893.769 84.1448 878.225 76.1371 861.41C74.185 857.311 73.0482 852.863 71.3114 848.676C70.4531 846.607 69.179 844.742 68.3072 842.703C67.8279 841.582 67.8255 840.785 66.9663 839.791Z"/>
	<path fill="#215485" transform="scale(0.940394 0.940394)" d="M762.114 323.093C763.565 323.118 764.062 323.073 765.307 323.896C769.579 326.721 773.499 330.936 777.375 334.326C782.643 338.933 788.139 343.291 793.524 347.761C787.116 347.834 781.14 343.258 774.611 342.522L773.864 340.905C770.371 334.701 765.81 329.181 762.114 323.093Z"/>
	<path fill="#F9F9F9" transform="scale(0.940394 0.940394)" d="M286.112 779.057C277.618 772.08 268.899 765.431 260.632 758.168Q249.796 748.511 239.776 738.01Q229.756 727.51 220.617 716.234C163.671 645.999 139.4 557.125 148.833 467.581C158.333 377.393 204.713 300.249 274.618 243.669C342.612 188.635 425.251 160.092 513.033 169.419C606.351 179.333 674.898 220.012 736.353 289.699C742.661 296.851 748.586 304.536 754.256 312.204C756.739 315.563 758.958 319.261 761.601 322.476L762.114 323.093C765.81 329.181 770.371 334.701 773.864 340.905L774.611 342.522C781.14 343.258 787.116 347.834 793.524 347.761C803.99 353.146 814.321 358.3 823.923 365.174C827.546 367.577 832.399 370.597 835.128 374.009C836.325 375.738 837.711 377.43 838.349 379.453C845.62 386.511 852.789 393.5 859.166 401.402Q860.292 402.814 861.389 404.248Q862.486 405.683 863.552 407.14Q864.619 408.597 865.655 410.077Q866.691 411.556 867.696 413.056Q868.701 414.557 869.674 416.078Q870.648 417.599 871.589 419.14Q872.531 420.681 873.44 422.241Q874.349 423.801 875.226 425.38Q876.103 426.959 876.946 428.556Q877.79 430.152 878.6 431.766Q879.41 433.38 880.186 435.011Q880.962 436.641 881.704 438.288Q882.446 439.934 883.154 441.595Q883.862 443.257 884.535 444.933Q885.207 446.609 885.845 448.298Q886.483 449.987 887.086 451.69Q887.688 453.392 888.255 455.107Q888.822 456.821 889.353 458.547Q889.884 460.273 890.379 462.01Q890.874 463.747 891.333 465.493Q891.791 467.24 892.214 468.996Q892.636 470.752 893.021 472.516Q893.407 474.28 893.756 476.052Q894.104 477.824 894.416 479.603Q894.728 481.382 895.002 483.166Q895.277 484.951 895.514 486.741Q895.752 488.532 895.952 490.326Q896.152 492.121 896.314 493.92Q896.477 495.718 896.602 497.52Q896.727 499.321 896.814 501.125Q896.902 502.929 896.952 504.734Q897.002 506.539 897.014 508.345C897.61 549.838 884.282 576.719 866.166 612.45C864.214 616.301 862.304 620.181 860.183 623.942C858.133 627.576 855.091 631.753 853.787 635.655C846.889 647.311 840.286 659.134 833.343 670.767C829.432 677.319 824.551 684.039 821.278 690.885C814.071 700.533 807.973 711.459 801.322 721.542L782.697 749.441C780.979 752.022 777.802 755.656 776.787 758.506C770.207 767.471 724.604 834.638 722.86 835.406C722.556 835.539 722.209 835.54 721.884 835.607L721.5 835.49C715.019 826.434 708.149 817.654 701.604 808.643C697.51 803.006 693.624 796.533 688.98 791.374C686.389 787.072 683.33 782.927 680.513 778.76C679.46 779.609 678.544 780.277 677.756 781.393L677.603 781.297C672.199 786.672 664.437 791.236 658.012 795.357Q654.617 797.528 651.167 799.611Q647.717 801.694 644.214 803.687Q640.711 805.68 637.158 807.581Q633.605 809.483 630.004 811.292Q626.402 813.101 622.756 814.816Q619.109 816.531 615.419 818.151Q611.729 819.772 607.998 821.296Q604.268 822.82 600.499 824.247Q596.73 825.675 592.926 827.004Q589.121 828.333 585.284 829.564Q581.446 830.794 577.578 831.925Q573.71 833.055 569.814 834.086Q565.917 835.116 561.996 836.045Q558.075 836.974 554.13 837.801Q550.186 838.629 546.222 839.354Q542.258 840.079 538.276 840.701C447.865 855.248 360.082 832.453 286.112 779.057Z"/>
	<path fill="#028686" transform="scale(0.940394 0.940394)" d="M278.815 269.838C279.084 270.101 279.431 270.406 279.598 270.746C279.852 271.263 280.14 272.209 279.904 272.777C278.875 275.248 273.654 277.24 271.367 278.441L270.631 278.018C271.266 275.647 276.808 271.591 278.815 269.838Z"/>
	<path fill="#666B67" transform="scale(0.940394 0.940394)" d="M573.878 604.582C575.937 608.264 577.747 612.079 579.603 615.866L576.053 616.005L575.626 615.899C575.993 613.666 571.26 606.443 570.058 604.173C571.314 604.315 572.617 604.546 573.878 604.582Z"/>
	<path fill="#028686" transform="scale(0.940394 0.940394)" d="M276.706 369.428C280.536 371.648 284.778 373.328 288.176 376.247C289.117 377.056 289.738 377.549 289.801 378.832L287.837 379.027C284.205 377.371 275.432 375.511 273.073 372.954L273.463 372.205C274.681 371.684 275.495 371.401 276.222 370.243C276.39 369.975 276.544 369.7 276.706 369.428Z"/>
	<path fill="#028686" transform="scale(0.940394 0.940394)" d="M294.841 258.924C296.929 257.088 300.344 253.403 302.979 252.729L303.543 253.324C303.542 254.377 303.484 255.254 303.857 256.254Q306.208 256.014 308.569 255.933C309.467 256.403 309.701 256.897 310.155 257.765C310.599 258.612 310.726 258.877 311.461 259.542C313.106 258.5 313.298 256.771 314.44 255.248C315.128 254.33 315.265 254.333 316.34 254.172C316.952 255.198 316.465 256.091 316.232 257.229C317.004 258.36 317.629 258.209 318.904 258.507L317.296 260.878C316.872 261.671 316.478 262.386 316.19 263.241C316.147 263.17 316.089 263.107 316.062 263.029C315.756 262.132 315.921 261.479 316.247 260.638C316.364 260.334 316.49 260.034 316.611 259.733C316.325 258.648 316.489 258.445 315.544 257.755L314.839 257.947C314.229 258.922 313.622 260.044 312.419 260.384C308.999 261.35 310.104 258.131 308.052 256.895C306.861 256.872 305.833 256.764 304.741 257.332C303.965 258.968 304.468 260.996 304.462 262.769L303.612 260.918C302.972 260.741 302.174 260.695 301.503 260.624C299.037 260.362 297.136 259.799 294.841 258.924Z"/>
	<path fill="#91928D" transform="scale(0.940394 0.940394)" d="M661.523 758.573C662.655 757.979 663.547 757.119 664.516 756.294C669.542 762.973 676.866 771.433 680.513 778.76C679.46 779.609 678.544 780.277 677.756 781.393L677.603 781.297C677.549 781.132 677.505 780.963 677.44 780.803C676.195 777.737 663.978 759.889 661.536 758.848L661.523 758.573Z"/>
	<path fill="#0A9EAE" transform="scale(0.940394 0.940394)" d="M412.152 245.38L412.806 245.67C412.764 247.912 411.797 250.462 410.968 252.536C409.256 256.82 403.618 263.232 399.451 265.084C398.482 264.023 397.541 263.053 397.599 261.508C397.773 256.9 408.375 248.088 412.152 245.38Z"/>
	<path fill="#028686" transform="scale(0.940394 0.940394)" d="M489.902 315.374C493.991 315.406 498.094 315.126 502.178 314.933C503.037 316.64 502.949 317.585 502.682 319.453C504.256 323.153 511.609 327.918 510.382 332.088C509.529 334.989 505.506 337.172 503.737 339.648C500.518 344.154 498.661 353.353 493.036 355.336C492.1 355.665 491.037 355.656 490.055 355.668L489.902 315.374Z"/>
	<path fill="#028686" transform="scale(0.940394 0.940394)" d="M221.875 370.95C223.72 370.31 226.886 371.743 228.685 372.62C230.701 373.604 230.993 374.375 231.751 376.424C232.753 376.658 232.834 376.625 233.778 376.393C237.327 375.521 239.88 375.152 243.491 376.013C231.587 382.91 234.933 385.068 227.619 393.653C226.452 393.801 225.501 393.857 224.454 394.432C223.249 397.156 223.834 401.307 223.514 404.308C223.375 405.612 223.26 406.664 222.055 407.38C220.864 408.088 220.059 408.068 218.753 407.798C216.956 406.548 216.334 405.303 215.742 403.224C214.515 398.916 214.235 396.488 216.487 392.506C212.176 385.844 206.168 381.426 200.049 376.553L201.068 374.187C207.292 372.678 211.317 372.565 217.641 373.892C219.093 372.978 220.477 371.944 221.875 370.95Z"/>
	<path fill="#B0D199" transform="scale(0.940394 0.940394)" d="M568.495 263.352C577.205 270.495 584.507 279.214 592.417 287.2C579.111 291.92 556.442 299.905 542.438 300.439Q542.345 299.711 542.226 298.986C541.498 294.662 538.814 292.752 535.461 290.364C541.475 286.086 553.951 280.212 558.288 276.014C558.544 274.02 558.669 271.673 559.401 269.797C560.902 265.949 564.997 264.753 568.495 263.352Z"/>
	<path fill="#3F8B5D" transform="scale(0.940394 0.940394)" d="M622.856 699.665C626.976 704.042 630.06 710.839 633.264 716.038Q642.875 731.635 653.238 746.742C655.914 750.642 658.502 754.961 661.523 758.573L661.536 758.848C658.109 761.075 654.948 764.181 651.774 766.788C636.145 751.262 618.099 740.523 599.036 729.81C607.684 720.479 614.848 709.563 622.856 699.665Z"/>
	<path fill="#B0D199" transform="scale(0.940394 0.940394)" d="M610.468 224.519C627.029 231.424 641.948 240.773 656.806 250.732C645.547 261.094 632.856 269.077 619 275.504C614.152 277.752 608.172 279.616 603.73 282.46C603.026 278.905 601.282 275.949 599.633 272.758C600.567 271.04 601.373 269.231 602.227 267.471C601.513 255.505 599.916 256.144 594.192 246.927C592.863 244.786 592.153 242.835 592.761 240.355C594.853 237.271 601.895 236.917 605.399 236.031C607.677 235.455 610.963 234.64 612.011 232.256C612.985 230.038 611.231 226.646 610.468 224.519Z"/>
	<path fill="#0A9EAE" transform="scale(0.940394 0.940394)" d="M318.849 242.839C331.304 235.892 343.543 228.416 356.409 222.242C393.741 204.328 436.016 195.026 477.333 194.051Q469.104 199.107 461.165 204.605Q453.226 210.104 445.6 216.03Q437.974 221.956 430.684 228.29Q423.395 234.625 416.463 241.35C415.045 240.308 413.643 239.229 412.183 238.247C404.408 242.061 400.284 247.085 394.185 252.841C393.967 250.235 400.06 230.365 401.185 226.889Q395.356 225.34 389.642 223.411L387.656 224.994C385.797 225.144 384.54 224.124 382.849 223.397C375.783 223.718 369.541 234.773 363.699 238.58C363.56 238.671 363.417 238.757 363.276 238.845L357.132 239.466C355.129 238.13 353.209 236.653 351.266 235.231C348.012 236.093 338.805 237.181 336.969 239.99C337.089 240.498 337.215 241.006 337.365 241.506L337.526 242.027C336.517 243.281 334.836 243.517 333.353 243.953Q331.465 247.304 329.45 250.581C325.339 248.716 322.169 245.832 318.849 242.839Z"/>
	<path fill="#0A9EAE" transform="scale(0.940394 0.940394)" d="M492.462 194.397Q498.346 194.638 504.217 195.112Q510.087 195.585 515.934 196.29Q521.781 196.995 527.596 197.931Q533.411 198.866 539.184 200.03Q544.957 201.194 550.68 202.586Q556.403 203.977 562.066 205.593Q567.73 207.21 573.325 209.048Q578.92 210.887 584.438 212.945C593.278 216.336 601.875 220.543 610.468 224.519C611.231 226.646 612.985 230.038 612.011 232.256C610.963 234.64 607.677 235.455 605.399 236.031C601.895 236.917 594.853 237.271 592.761 240.355C592.153 242.835 592.863 244.786 594.192 246.927C599.916 256.144 601.513 255.505 602.227 267.471C601.373 269.231 600.567 271.04 599.633 272.758C601.282 275.949 603.026 278.905 603.73 282.46C600.057 281.895 594.499 274.329 591.887 271.44C586.1 266.63 580.583 261.336 575.269 256.009C557.266 239.646 538.914 223.876 518.671 210.305C510.153 204.594 501.207 199.72 492.462 194.397Z"/>
	<path fill="#B0D199" transform="scale(0.940394 0.940394)" d="M579.437 251.904C582.821 252.289 588.656 251.582 590.876 254.248C593.437 257.324 594.191 264.589 593.611 268.574C593.433 269.793 592.671 270.567 591.887 271.44C586.1 266.63 580.583 261.336 575.269 256.009L579.437 251.904Z"/>
	<path fill="#3F8B5D" transform="scale(0.940394 0.940394)" d="M592.098 737.604C610.48 745.68 628.837 759.163 643.424 772.828C638.851 776.011 633.53 778.493 628.639 781.186C600.285 796.797 571.11 807.059 539.386 813.439C523.658 816.332 507.417 817.568 491.447 818.084C520.182 801.466 545.329 784.351 569.402 761.244C577.266 753.696 584.619 745.533 592.098 737.604Z"/>
	<path fill="#0D7165" transform="scale(0.940394 0.940394)" d="M376.92 737.463C378.224 737.735 403.256 763.39 407.057 766.817Q418.133 776.867 430.049 785.904Q441.966 794.942 454.631 802.896C463.041 808.203 471.754 812.997 480.258 818.151C463.664 817.723 446.771 815.671 430.39 813.018C389.523 805.756 358.019 791.489 322.123 771.463C337.604 757.389 357.815 745.791 376.92 737.463Z"/>
	<path fill="#0A9EAE" transform="scale(0.940394 0.940394)" d="M489.571 204.381C501.053 212.043 513.025 219.163 524.27 227.143C539.882 238.222 554.329 250.515 568.495 263.352C564.997 264.753 560.902 265.949 559.401 269.797C558.669 271.673 558.544 274.02 558.288 276.014C553.951 280.212 541.475 286.086 535.461 290.364C538.814 292.752 541.498 294.662 542.226 298.986Q542.345 299.711 542.438 300.439C533.879 301.105 525.404 302.347 516.869 303.21C511.697 304.913 496.07 304.461 490.003 304.544Q489.911 296.097 490.078 287.651C489.339 277.634 489.745 267.414 489.747 257.365Q489.847 230.872 489.571 204.381Z"/>
	<path fill="#B0D199" transform="scale(0.940394 0.940394)" d="M493.912 269.254C495.911 268.007 499.015 265.477 501.465 265.985C505.311 266.784 509.119 276.815 511.842 279.845C514.552 282.86 518.538 284.509 521.641 287.046C525.785 286.127 532.456 282.28 535.52 282.522L536.153 283.129C535.792 286.906 529.176 291.531 526.431 293.794C524.165 295.661 516.858 300.351 516.791 302.936C516.789 303.031 516.843 303.119 516.869 303.21C511.697 304.913 496.07 304.461 490.003 304.544Q489.911 296.097 490.078 287.651C493.184 282.429 495.037 275.268 493.912 269.254Z"/>
	<path fill="#0D7165" transform="scale(0.940394 0.940394)" d="M469.508 714.212C472.892 713.878 476.396 713.901 479.799 713.757L479.781 806.429C462.33 796.137 446.334 785.464 430.425 772.907C414.288 761.471 400.398 746.619 386.612 732.568C412.803 721.792 441.355 716.219 469.508 714.212Z"/>
	<defs>
		<linearGradient id="gradient_1" gradientUnits="userSpaceOnUse" x1="488.85596" y1="498.42188" x2="559.78137" y2="408.1825">
			<stop offset="0" stop-color="#69AA73"/>
			<stop offset="1" stop-color="#ABD193"/>
		</linearGradient>
	</defs>
	<path fill="url(#gradient_1)" transform="scale(0.940394 0.940394)" d="M540.599 421.749C551.373 419.039 562.67 418.658 573.494 415.689L571.272 419.603C555.36 442.993 545.579 472.751 543.125 500.833C525.558 500.141 507.652 501.518 490.06 501.817L490.109 425.829C498.822 425.478 507.547 425.058 516.207 423.989C524.121 424.361 532.746 422.691 540.599 421.749Z"/>
	<path fill="#028686" transform="scale(0.940394 0.940394)" d="M540.599 421.749C541.981 423.144 541.593 426.274 541.585 428.23C541.551 435.679 539.37 441.857 538.459 449.044C538.038 452.368 538.792 460.683 536.479 463.106C534.55 465.127 531.184 465.254 528.589 465.191C520.013 464.982 507.771 460.046 501.897 453.829C500.408 452.253 498.721 449.987 498.708 447.708C498.701 446.386 499.334 445.292 500.269 444.404C502.558 442.229 510.957 442.146 514.226 441.659C515.862 439.619 517.333 437.723 519.515 436.221C517.975 433.301 513.918 427.944 513.623 424.89C514.482 424.581 515.337 424.267 516.207 423.989C524.121 424.361 532.746 422.691 540.599 421.749Z"/>
	<path fill="#3F8B5D" transform="scale(0.940394 0.940394)" d="M489.694 713.575C520.966 714.67 553.05 721.038 581.932 733.212C570.233 746.321 557.709 758.371 544.613 770.068C527.979 784.459 509.159 796.09 489.871 806.55C490.044 775.628 490.732 744.471 489.694 713.575Z"/>
	<path fill="#0A9EAE" transform="scale(0.940394 0.940394)" d="M478.865 205.422L479.126 205.662C480.259 208.439 479.714 294.191 479.504 304.484C455.004 303.664 431.425 299.358 407.877 292.681C402.883 291.099 397.837 289.623 393.038 287.502C402.053 265.186 432.805 238.906 452.017 224.302C460.712 217.693 469.881 211.632 478.865 205.422Z"/>
	<defs>
		<linearGradient id="gradient_2" gradientUnits="userSpaceOnUse" x1="514.96075" y1="600.46826" x2="544.19421" y2="512.56226">
			<stop offset="0" stop-color="#4F9763"/>
			<stop offset="1" stop-color="#77B179"/>
		</linearGradient>
	</defs>
	<path fill="url(#gradient_2)" transform="scale(0.940394 0.940394)" d="M489.972 511.318C507.298 511.482 525.201 512.075 542.457 510.803C542.359 541.743 547.49 557.371 560.238 585.207C563.063 591.375 567.629 597.636 569.631 604.002C562.31 602.857 555.157 600.067 547.794 598.803C528.728 595.531 509.318 594.44 490.019 593.683L489.972 511.318Z"/>
	<path fill="#3F8B5D" transform="scale(0.940394 0.940394)" d="M371.456 511.889C382.767 511.299 394.211 511.652 405.54 511.587L479.618 511.31C479.593 520.566 480.175 590.961 479.124 593.402C478.551 593.677 478.166 593.877 477.53 593.965C477.303 591.697 475.094 588.645 473.897 586.64C469.136 578.662 456.741 569.247 447.913 566.996C446.606 567.358 445.291 567.697 443.987 568.07C437.666 569.881 431.845 568.5 425.434 568.661C421.551 568.759 417.712 569.509 413.816 569.51C407.014 569.512 399.094 566.837 394.359 561.868C384.531 551.554 380.491 525.715 380.862 512.053C377.715 512.087 374.599 512.041 371.456 511.889Z"/>
	<defs>
		<linearGradient id="gradient_3" gradientUnits="userSpaceOnUse" x1="210.3587" y1="352.75015" x2="340.12488" y2="307.17801">
			<stop offset="0" stop-color="#007880"/>
			<stop offset="1" stop-color="#039AA3"/>
		</linearGradient>
	</defs>
	<path fill="url(#gradient_3)" transform="scale(0.940394 0.940394)" d="M303.612 260.918L304.462 262.769C304.468 260.996 303.965 258.968 304.741 257.332C305.833 256.764 306.861 256.872 308.052 256.895C310.104 258.131 308.999 261.35 312.419 260.384C313.622 260.044 314.229 258.922 314.839 257.947L315.544 257.755C316.489 258.445 316.325 258.648 316.611 259.733C316.49 260.034 316.364 260.334 316.247 260.638C315.921 261.479 315.756 262.132 316.062 263.029C316.089 263.107 316.147 263.17 316.19 263.241C315.565 264.358 315.028 265.045 313.736 265.444C309.369 266.793 306.717 263.118 303.339 268.275C302.919 268.917 303.042 268.563 303.129 269.473C305.078 269.378 306.934 268.891 308.694 269.78C309.116 271.166 309.189 271.248 308.709 272.599C305.236 275.195 303.649 273.265 299.959 277.604C304.82 277.714 310.187 278.235 314.995 277.616C319.273 277.065 325.983 271.934 330.115 274.242C330.675 275.644 330.209 277.024 329.66 278.366C328.877 280.28 327.61 281.986 326.435 283.674L328.36 289.355C326.194 297.724 323.348 306.192 322.185 314.765C320.839 324.695 321.753 338.042 318.838 347.163C317.705 350.478 316.607 353.804 315.286 357.05C314.669 362.998 312.183 372.572 309.301 377.76C308.726 379.916 308.308 382.419 307.126 384.322C306.225 384.362 306.56 384.509 306.046 384.133C304.54 382.88 302.68 381.913 301.011 380.881Q297.397 379.387 293.762 377.942C291.371 374.264 289.63 372.129 285.691 370.062C285.403 368.409 285.213 366.501 284.648 364.931C284.216 363.731 283.666 363.21 282.586 362.621C280.137 362.726 277.865 362.831 275.472 362.2C275.43 362.19 273.892 361.761 273.733 361.762C272.465 361.768 272.349 365.571 271.263 366.76C269.208 366.823 267.043 365.23 265.53 363.965C261.558 360.642 271.498 354.089 270.967 349.405L269.927 348.743C266.46 348.839 264.683 350.96 262.296 353.167C254.029 351.17 249.772 351.701 242.057 355.128C242.906 355.639 243.841 356.145 244.606 356.775C245.58 357.577 246.075 358.558 245.904 359.85C245.773 360.833 245.032 361.948 244.223 362.51C242.492 363.713 239.747 364.893 237.64 364.672C237.612 362.266 237.802 360.293 236.055 358.479C232.743 358.044 224.131 358.063 221.563 359.984C220.279 358.82 218.98 359.833 217.085 359.421C214.503 358.86 211.873 357.615 209.407 356.657C210.579 354.918 211.715 353.602 213.316 352.245C222.688 348.678 223.666 339.674 230.335 333.504C233.437 330.633 237.295 330.026 240.561 327.744C241.966 326.763 240.672 326.616 241.006 325.356C244.251 324.213 247.858 324.986 251.233 324.199C251.983 324.025 252.729 323.823 253.493 323.718C255.376 323.46 256.492 324.641 257.849 325.749C258.581 326.346 258.751 326.247 259.657 326.36C260.266 326.052 260.772 325.739 261.246 325.24C262.694 323.715 263.299 322.004 263.156 319.906C262.864 315.611 261.261 314.003 258.321 311.25C255.245 312.656 248.777 314.839 246.857 317.433C247.898 317.122 247.797 316.934 248.841 317.437C249.242 318.313 249.651 319.154 250.153 319.977L250.605 320.709L250.442 321.155C246.963 321.55 244.189 320.963 240.912 319.877C238.288 319.008 236.262 319.3 233.567 319.608C238.404 315.406 241.746 307.27 247.263 304.178C247.203 304.513 247.126 304.846 247.085 305.185C246.986 305.991 246.838 306.55 247.342 307.188C248.785 307.553 249.955 306.952 251.307 306.481L251.999 306.235C253.477 306.491 254.156 307.032 255.265 307.964C255.399 308.077 255.532 308.193 255.665 308.308C257.331 307.795 258.609 306.255 259.845 305.061C260.955 306.299 262.115 307.789 263.599 308.577C267.049 310.41 270.767 312.583 273.828 315.015C275.056 315.991 278.022 318.37 278.189 319.881C277.2 320.449 276.353 320.96 275.489 321.716C275.121 323.888 276.498 326.134 277.341 328.1C274.5 332.048 271.858 328.502 268.311 329.128C265.98 331.064 263.737 333.652 262.407 336.386C263.767 337.54 265.194 338.744 266.385 340.074C268.108 341.999 270.586 342.899 272.888 344.018C275.328 348.29 278.402 349.24 282.916 350.74C284.09 351.13 284.991 351.562 286.131 350.969C286.443 348.071 286.727 346.2 288.667 343.957C289.088 343.47 288.946 343.785 289.042 343.098L284.929 342.352L280.054 337.438C282.251 335.612 284.018 333.856 285.775 331.595C289.59 332.311 293.132 333.432 296.755 334.804C297.828 330.366 299.04 327.049 301.799 323.367C300.425 321.797 298.965 317.899 297.278 317.176L296.069 319.267L295.031 319.493C292.909 318.018 292.546 314.758 291.157 312.657C290.496 311.657 289.427 310.819 288.666 309.863C288.441 307.692 289.663 305.188 290.369 303.144C286.481 299.437 282.603 296.567 277.936 293.903C271.117 295.084 273.905 294.485 268.511 291.969C266.602 291.079 263.725 292.188 261.779 292.715C260.402 294.15 259.884 296.796 259.263 298.673C258.08 299.738 251.478 300.242 249.509 300.667C251.755 297.707 257.569 288.597 261.237 288.556C266.139 288.502 266.236 289.905 271.606 287.664C274.323 286.529 274.888 285.339 275.973 282.694L276.227 282.062C277.326 281.259 277.995 281.435 279.282 281.408C280.883 281.374 281.835 281.428 283.283 280.582C285.58 277.436 282.922 276.089 283.129 272.799C285.258 270.813 288.26 273.818 290.622 272.342C291.717 271.657 292.893 270.243 293.905 269.376C296.681 266.997 299.706 264.701 302.791 262.736C303.522 262.271 303.412 261.733 303.612 260.918Z"/>
	<path fill="#EFF0E8" transform="scale(0.940394 0.940394)" d="M303.28 375.441C304.722 378.376 305.481 380.9 306.046 384.133C304.54 382.88 302.68 381.913 301.011 380.881L303.28 375.441Z"/>
	<path fill="#EFF0E8" transform="scale(0.940394 0.940394)" d="M315.286 357.05C314.669 362.998 312.183 372.572 309.301 377.76C308.638 376.277 308.083 374.625 307.768 373.031C306.662 367.435 312.24 361.292 315.286 357.05Z"/>
	<path fill="#F9F9F9" transform="scale(0.940394 0.940394)" d="M248.716 333.638C249.937 333.572 250.56 333.688 251.676 334.189L251.998 335.253C250.945 336.635 249.169 335.857 247.737 337.198C245.439 339.348 244.299 342.832 241.861 344.745C239.836 346.335 238.004 345.91 235.616 345.59C234.649 345.34 233.141 344.739 232.447 343.977C231.653 343.104 231.347 342.185 231.562 341.008C232.074 338.196 235.001 335.986 237.135 334.425C241.205 334.581 244.722 334.433 248.716 333.638Z"/>
	<path fill="#B0D199" transform="scale(0.940394 0.940394)" d="M609.91 291.867C617.48 287.534 625.644 283.957 633.344 279.799C644.873 273.574 656.158 265.987 666.495 257.956C686.651 273.825 705.855 292.442 721.946 312.453C727.416 319.256 732.311 326.524 737.475 333.562C704.987 332.077 678.199 335.986 648.672 350.038C641.747 332.273 622.593 306.302 609.91 291.867Z"/>
	<defs>
		<linearGradient id="gradient_4" gradientUnits="userSpaceOnUse" x1="201.14452" y1="655.28699" x2="252.1649" y2="587.60156">
			<stop offset="0" stop-color="#1C745C"/>
			<stop offset="1" stop-color="#338864"/>
		</linearGradient>
	</defs>
	<path fill="url(#gradient_4)" transform="scale(0.940394 0.940394)" d="M180.287 576.95C180.444 576.921 180.602 576.896 180.758 576.864C193.444 574.282 201.131 556.619 216.01 566.213C222.045 570.104 227.837 574.434 234.133 577.901C242.077 582.275 250.942 585.9 258.328 591.154C263.388 594.753 268.072 599.342 272.832 603.358C280.703 609.998 288.519 615.816 297.233 621.31C299.991 623.049 302.597 625.197 305.83 625.854C302.494 626.326 298.643 628.462 295.503 629.787C269.119 640.924 243.605 655.587 219.816 671.442C201.759 638.639 189.257 613.883 180.287 576.95Z"/>
	<defs>
		<linearGradient id="gradient_5" gradientUnits="userSpaceOnUse" x1="205.14667" y1="522.72687" x2="297.95026" y2="392.68045">
			<stop offset="0" stop-color="#037D78"/>
			<stop offset="1" stop-color="#029296"/>
		</linearGradient>
	</defs>
	<path fill="url(#gradient_5)" transform="scale(0.940394 0.940394)" d="M286.499 389.251Q294.63 391.766 302.707 394.448C300.46 401.928 297.988 409.439 296.136 417.023C289.595 443.805 286.144 473.992 285.785 501.55Q229.362 501.408 172.94 501.853C173.156 493.624 172.529 483.716 174.254 475.695C192.358 475.736 191.603 468.4 203.114 458.817C203.154 458.641 203.192 458.464 203.236 458.289C203.302 458.021 203.377 457.755 203.446 457.488C207.577 441.405 229.603 444.463 234.301 439.139C235.241 438.074 235.219 437.777 235.172 436.449C233.807 435.013 231.022 434.924 229.143 434.142C228.028 433.677 227.478 433.035 227.081 431.91C226.778 431.051 227.009 430.971 227.342 430.201C231.622 426.639 240.329 427.278 245.522 427.648C247.843 429.333 250.011 431.337 252.231 433.166C254.423 431.133 257.043 429.528 259.502 427.836C258.675 426.907 257.839 425.976 257.069 424.999C255.893 423.506 256.137 422.197 256.339 420.434C256.638 417.822 251.019 416.081 250.099 413.486C249.85 412.785 250.068 412.852 250.508 412.108C252.768 412.018 253.989 413.876 255.976 414.345C257.197 414.633 258.221 413.757 259.245 413.203C259.627 411.69 258.116 410.76 257.436 409.332L257.971 408.489C259.529 407.691 260.759 407.563 262.504 407.544C266.315 407.503 270.964 404.869 274.151 405.929C275.757 407.15 276.217 408.904 276.907 410.72C274.827 412.012 272.081 413.324 271.102 415.693C270.762 416.516 270.997 416.578 271.32 417.322C274.894 418.972 280.1 416.764 283.616 415.495C284.975 413.788 286.045 411.864 287.176 410C285.705 408.97 283.854 407.722 283.523 405.802C282.651 400.74 283.571 393.426 286.499 389.251Z"/>
	<path fill="#028686" transform="scale(0.940394 0.940394)" d="M172.891 512.04L285.964 511.868C285.605 542.237 290.133 573.836 298.306 603.065C300.462 610.776 303.466 618.209 305.83 625.854C302.597 625.197 299.991 623.049 297.233 621.31C288.519 615.816 280.703 609.998 272.832 603.358C268.072 599.342 263.388 594.753 258.328 591.154C250.942 585.9 242.077 582.275 234.133 577.901C227.837 574.434 222.045 570.104 216.01 566.213C201.131 556.619 193.444 574.282 180.758 576.864C180.602 576.896 180.444 576.921 180.287 576.95Q176.932 560.93 175.079 544.667Q173.226 528.404 172.891 512.04Z"/>
	<path fill="#0D7165" transform="scale(0.940394 0.940394)" d="M309.455 634.953C311.037 636.079 315.896 649.458 317.063 651.924C319.29 656.633 321.838 661.201 324.446 665.708C337.563 688.369 353.166 708.934 369.983 728.922C363.129 732.785 356.091 736.246 349.328 740.291C336.732 747.825 325.265 756.44 313.882 765.675L299.003 755.01C276.226 739.027 256.711 718.682 239.241 697.194C234.928 691.888 230.42 686.633 226.58 680.969C230.725 676.799 235.825 673.376 240.681 670.074C262.262 655.402 285.838 645.719 309.455 634.953Z"/>
	<path fill="#028686" transform="scale(0.940394 0.940394)" d="M296.249 511.977L371.456 511.889C374.599 512.041 377.715 512.087 380.862 512.053C380.491 525.715 384.531 551.554 394.359 561.868C399.094 566.837 407.014 569.512 413.816 569.51C417.712 569.509 421.551 568.759 425.434 568.661C431.845 568.5 437.666 569.881 443.987 568.07C445.291 567.697 446.606 567.358 447.913 566.996C456.741 569.247 469.136 578.662 473.897 586.64C475.094 588.645 477.303 591.697 477.53 593.965C420.968 593.832 369.328 602.541 316.158 621.766C302.05 590.134 297.115 546.402 296.249 511.977Z"/>
	<path fill="#3F8B5D" transform="scale(0.940394 0.940394)" d="M489.936 604.194C519.188 604.343 547.265 609.108 575.626 615.899L576.053 616.005C585.17 634.6 595.403 652.629 605.438 670.731C608.485 676.228 612.942 686.121 616.71 690.584C614.021 694.522 610.773 698.25 607.826 702.009C601.739 709.774 595.68 717.542 589.141 724.936C557.903 711.092 523.753 705.485 489.887 703.577L489.936 604.194Z"/>
	<path fill="#B0D199" transform="scale(0.940394 0.940394)" d="M599.24 296.515C615.817 312.888 629.665 333.667 640.137 354.405C620.088 365.819 595.524 384.567 582.844 404C582.31 403.816 582.194 403.738 581.546 403.732C578.022 403.7 570.995 405.991 567.205 406.742C559.577 408.254 551.839 409.377 544.158 410.601Q524.087 413.547 503.835 414.707C500.058 415.965 493.599 415.445 489.495 415.62L490.055 355.668C491.037 355.656 492.1 355.665 493.036 355.336C498.661 353.353 500.518 344.154 503.737 339.648C505.506 337.172 509.529 334.989 510.382 332.088C511.609 327.918 504.256 323.153 502.682 319.453C502.949 317.585 503.037 316.64 502.178 314.933L502.632 314.862C507.26 314.187 512.057 314.215 516.727 313.859C526.176 313.139 535.693 312.184 545.053 310.698Q564.117 307.551 582.561 301.792C588.125 300.112 593.645 298.049 599.24 296.515Z"/>
	<path fill="#028686" transform="scale(0.940394 0.940394)" d="M503.835 414.707C503.751 414.479 503.631 414.261 503.583 414.022C502.563 408.964 506.984 398.798 510.053 394.816C513.584 390.234 519.068 385.662 524.988 385.094C527.328 384.869 529.918 385.461 531.683 387.084C533.603 388.851 534.366 392.018 535.784 394.204C538.01 397.636 541.34 400.407 542.976 404.221C543.862 406.289 544.008 408.38 544.158 410.601Q524.087 413.547 503.835 414.707Z"/>
	<path fill="#028686" transform="scale(0.940394 0.940394)" d="M390.417 297.96C398.515 300.14 406.438 302.905 414.537 305.086C435.566 310.75 457.937 314.46 479.753 314.564C479.746 330.214 480.776 346.719 478.956 362.237C480.197 371.44 479.45 381.617 479.466 390.952C479.48 398.966 480.099 407.573 479.214 415.506C462.446 415.434 445.283 415.105 428.602 413.462C390.442 409.705 353.224 400.042 316.915 388.084C319.494 380.44 321.695 372.6 325.844 365.63C337.497 360.212 342.848 356.901 347.486 344.361C348.581 341.4 349.707 338.698 352.024 336.445C358.91 329.75 371.898 324.885 380.499 320.493C388.594 316.36 389.958 312.275 389.719 303.635C389.675 302.052 389.472 300.319 390.053 298.812C390.164 298.524 390.296 298.244 390.417 297.96Z"/>
	<path fill="#B0D199" transform="scale(0.940394 0.940394)" d="M410.454 370.963C411.366 370.916 412.544 370.884 413.371 371.333C414.377 371.878 414.912 372.665 415.247 373.719C415.894 375.75 414.964 378.168 413.96 379.925C412.447 382.573 411.262 383.444 408.36 384.295C408.216 384.275 408.072 384.26 407.928 384.236C405.976 383.91 404.036 383.03 403.017 381.209C402.379 380.071 402.471 378.84 402.825 377.638C403.944 373.848 407.193 372.455 410.454 370.963Z"/>
	<path fill="#B0D199" transform="scale(0.940394 0.940394)" d="M419.188 403.845C423.808 404.053 427.928 406.411 432.613 406.573C439.366 406.807 449.35 403.646 455.585 405.397L455.703 406.047L454.412 407.011C442.464 410.5 431.126 410.039 418.834 409.491C418.775 407.531 418.806 405.773 419.188 403.845Z"/>
	<path fill="#B0D199" transform="scale(0.940394 0.940394)" d="M423.308 349.285L424.893 349.724C426.144 351.609 425.502 354.885 425.361 357.084C426.114 357.489 426.832 357.885 427.506 358.416C429.127 359.694 430.565 361.667 430.573 363.834C430.578 365.294 430.34 365.604 429.479 366.681C427.763 367.341 426.523 367.075 424.741 366.783L424.366 364.576L423.601 364.142C421.409 365.514 418.857 367.03 416.15 366.514C415.414 366.374 415.416 365.985 415.071 365.397C415.338 363.698 416.606 362.636 417.721 361.415L416.761 355.897C418.577 352.925 420.352 351.137 423.308 349.285Z"/>
	<path fill="#B0D199" transform="scale(0.940394 0.940394)" d="M423.212 367.588C424.19 367.705 424.33 367.868 425.085 368.563C428.204 371.436 432.575 369.401 435.496 372.493C435.843 373.393 436.042 373.881 435.907 374.869C435.766 375.904 435.043 376.14 434.279 376.771C433.925 377.667 433.878 378.18 434.049 379.112C434.105 379.417 434.169 379.721 434.229 380.025C433.682 381.265 432.838 381.388 431.672 381.992C430.898 382.864 430.12 383.82 429.244 384.59C428.199 385.508 427.482 385.479 426.154 385.439C425.246 384.943 424.788 384.604 424.199 383.719C421.496 379.655 422.168 372.07 423.212 367.588Z"/>
	<path fill="#EFF0E8" transform="scale(0.940394 0.940394)" d="M392.588 321.547C394.496 321.419 396.683 321.286 398.524 321.877C399.99 322.347 401.35 323.275 401.884 324.788C402.524 326.6 401.805 328.64 400.881 330.214C398.462 334.332 394.95 336.525 390.449 337.714C389.055 337.618 387.803 337.483 386.506 336.931C384.451 336.055 381.457 334.247 380.668 332.013C380.346 331.099 380.354 330.265 380.859 329.402C382.564 326.488 383.607 327.991 385.979 327.27C388.219 326.59 388.664 322.683 392.588 321.547Z"/>
	<path fill="#B0D199" transform="scale(0.940394 0.940394)" d="M463.733 363.734C464.644 361.991 465.588 360.242 466.416 358.459C467.631 355.841 468.148 352.253 467.065 349.5C464.819 343.787 455.23 343.729 450.305 341.599C448.817 340.955 447.58 339.923 447.052 338.34C445.88 334.824 447.974 327.753 449.592 324.576C450.03 323.716 450.533 323.004 451.45 322.602C453.177 321.846 455.274 322.011 457.041 321.131C458.65 320.331 460.278 318.546 462.025 318.146C463.273 317.859 464.312 317.932 465.42 318.512C466.18 321.662 464.42 325.364 464.711 328.682C465.226 334.558 473.802 358.665 478.182 361.738C478.434 361.914 478.698 362.07 478.956 362.237C480.197 371.44 479.45 381.617 479.466 390.952C479.48 398.966 480.099 407.573 479.214 415.506C478.339 405.88 479.479 395.981 478.819 386.283C475.07 394.78 475.507 397.645 468.74 405.062C465.292 404.688 462.055 403.531 458.682 402.788C455.084 401.996 451.468 401.8 447.8 401.606C443.029 401.353 438.476 403.099 433.8 402.863C431.292 402.736 429.243 399.648 427.656 397.918Q428.026 396.316 428.473 394.734C429.304 391.839 432.539 386.498 435.166 385.038L435.746 385.336C436.531 388.693 434.585 391.038 433.028 393.881C436.196 393.952 440.127 394.419 442.931 392.658C442.182 392.15 441.609 391.729 441.041 391.02C443.42 389.268 457.751 395.185 461.347 394.56C461.113 393.512 460.952 392.487 460.824 391.421C461.242 390.662 461.597 389.916 461.926 389.115L461.401 388.27C458.778 387.888 456.457 390.17 453.54 389.838C450.398 389.48 447.719 387.117 445.793 384.775C447.173 380.903 452.572 376.206 455.966 373.89C458.699 372.026 460.47 372.39 463.587 372.969L467.311 368.924L463.733 363.734Z"/>
	<path fill="#028686" transform="scale(0.940394 0.940394)" d="M461.46 604.236C467.561 604.13 473.694 604.331 479.796 604.413C479.283 637.262 480.349 670.13 479.707 702.967C446.055 705.211 411.064 710.778 380.096 724.716C373.316 718.065 367.492 710.072 361.541 702.666C345.427 682.401 328.155 655.535 319.608 630.972C330.35 627.435 340.995 623.69 351.901 620.668C387.754 610.731 424.34 605.758 461.46 604.236Z"/>
	<path fill="#028686" transform="scale(0.940394 0.940394)" d="M313.065 397.793C367.813 415.927 421.166 426.185 479.009 425.77C478.796 441.368 479.514 456.991 479.509 472.601L479.617 501.742C449.343 502.569 418.487 502.145 388.176 501.894C374.435 501.78 360.442 502.485 346.736 501.858C329.947 501.951 313.169 501.613 296.38 501.512C296.564 466.232 302.941 431.506 313.065 397.793Z"/>
	<path fill="#62A973" transform="scale(0.940394 0.940394)" d="M459.771 440.495C462.708 440.384 465.554 439.827 467.984 441.733C468.458 443.361 468.289 443.83 467.934 445.441C467.447 445.582 466.959 445.751 466.444 445.764C463.738 445.836 461.349 442.343 459.771 440.495Z"/>
	<path fill="#62A973" transform="scale(0.940394 0.940394)" d="M431.964 444.751C437.593 446.845 440.925 445.143 446.429 443.633C452.854 441.87 456.8 442.978 462.403 446.187C465.864 454.792 472.423 466.555 479.509 472.601L479.617 501.742C449.343 502.569 418.487 502.145 388.176 501.894C374.435 501.78 360.442 502.485 346.736 501.858C350.879 501.097 355.636 501.474 359.857 501.467L383.827 501.461C384.903 497.608 385.942 493.716 387.567 490.05C390.546 483.335 394.289 478.387 394.541 470.817C396.229 469.09 398.156 467.656 399.68 465.756C402.246 462.56 404.364 458.586 407.38 455.813C413.508 450.178 423.828 448.856 431.242 445.121L431.964 444.751Z"/>
	<path fill="#F9F9F9" transform="scale(0.940394 0.940394)" d="M648.672 350.038C678.199 335.986 704.987 332.077 737.475 333.562C749.905 335.19 761.833 337.217 773.864 340.905L774.611 342.522C781.14 343.258 787.116 347.834 793.524 347.761C803.99 353.146 814.321 358.3 823.923 365.174C827.546 367.577 832.399 370.597 835.128 374.009C836.325 375.738 837.711 377.43 838.349 379.453C845.62 386.511 852.789 393.5 859.166 401.402Q860.292 402.814 861.389 404.248Q862.486 405.683 863.552 407.14Q864.619 408.597 865.655 410.077Q866.691 411.556 867.696 413.056Q868.701 414.557 869.674 416.078Q870.648 417.599 871.589 419.14Q872.531 420.681 873.44 422.241Q874.349 423.801 875.226 425.38Q876.103 426.959 876.946 428.556Q877.79 430.152 878.6 431.766Q879.41 433.38 880.186 435.011Q880.962 436.641 881.704 438.288Q882.446 439.934 883.154 441.595Q883.862 443.257 884.535 444.933Q885.207 446.609 885.845 448.298Q886.483 449.987 887.086 451.69Q887.688 453.392 888.255 455.107Q888.822 456.821 889.353 458.547Q889.884 460.273 890.379 462.01Q890.874 463.747 891.333 465.493Q891.791 467.24 892.214 468.996Q892.636 470.752 893.021 472.516Q893.407 474.28 893.756 476.052Q894.104 477.824 894.416 479.603Q894.728 481.382 895.002 483.166Q895.277 484.951 895.514 486.741Q895.752 488.532 895.952 490.326Q896.152 492.121 896.314 493.92Q896.477 495.718 896.602 497.52Q896.727 499.321 896.814 501.125Q896.902 502.929 896.952 504.734Q897.002 506.539 897.014 508.345C897.61 549.838 884.282 576.719 866.166 612.45C864.214 616.301 862.304 620.181 860.183 623.942C858.133 627.576 855.091 631.753 853.787 635.655C846.889 647.311 840.286 659.134 833.343 670.767C829.432 677.319 824.551 684.039 821.278 690.885C814.071 700.533 807.973 711.459 801.322 721.542L782.697 749.441C780.979 752.022 777.802 755.656 776.787 758.506C770.207 767.471 724.604 834.638 722.86 835.406C722.556 835.539 722.209 835.54 721.884 835.607L721.5 835.49C715.019 826.434 708.149 817.654 701.604 808.643C697.51 803.006 693.624 796.533 688.98 791.374C686.389 787.072 683.33 782.927 680.513 778.76C676.866 771.433 669.542 762.973 664.516 756.294C663.547 757.119 662.655 757.979 661.523 758.573C658.502 754.961 655.914 750.642 653.238 746.742Q642.875 731.635 633.264 716.038C630.06 710.839 626.976 704.042 622.856 699.665L623.174 698.935C621.553 696.205 619.45 692.325 617.006 690.334L616.71 690.584C612.942 686.121 608.485 676.228 605.438 670.731C595.403 652.629 585.17 634.6 576.053 616.005L579.603 615.866C577.747 612.079 575.937 608.264 573.878 604.582C572.617 604.546 571.314 604.315 570.058 604.173L569.631 604.002C567.629 597.636 563.063 591.375 560.238 585.207C547.49 557.371 542.359 541.743 542.457 510.803C542.749 507.487 542.916 504.155 543.125 500.833C545.579 472.751 555.36 442.993 571.272 419.603L573.494 415.689C576.724 411.902 579.743 407.896 582.844 404C595.524 384.567 620.088 365.819 640.137 354.405C643.038 353.03 645.899 351.661 648.672 350.038Z"/>
	<path fill="#91928D" transform="scale(0.940394 0.940394)" d="M619.125 687.252C621.113 690.356 622.992 693.845 625.316 696.691L623.174 698.935C621.553 696.205 619.45 692.325 617.006 690.334C617.8 689.409 618.444 688.268 619.125 687.252Z"/>
	<path fill="#164069" transform="scale(0.940394 0.940394)" d="M774.611 342.522C781.14 343.258 787.116 347.834 793.524 347.761C803.99 353.146 814.321 358.3 823.923 365.174C827.546 367.577 832.399 370.597 835.128 374.009C836.325 375.738 837.711 377.43 838.349 379.453C835.008 376.804 831.61 374.203 828.368 371.433C811.364 360.327 795.472 350.077 775.635 344.508L774.611 342.522Z"/>
	<path fill="#455A56" transform="scale(0.940394 0.940394)" d="M625.316 696.691C638.008 716.825 650.744 736.869 664.516 756.294C663.547 757.119 662.655 757.979 661.523 758.573C658.502 754.961 655.914 750.642 653.238 746.742Q642.875 731.635 633.264 716.038C630.06 710.839 626.976 704.042 622.856 699.665L623.174 698.935L625.316 696.691Z"/>
	<path fill="#455A56" transform="scale(0.940394 0.940394)" d="M576.053 616.005L579.603 615.866C592.365 639.722 604.718 664.364 619.125 687.252C618.444 688.268 617.8 689.409 617.006 690.334L616.71 690.584C612.942 686.121 608.485 676.228 605.438 670.731C595.403 652.629 585.17 634.6 576.053 616.005Z"/>
	<path fill="#455A56" transform="scale(0.940394 0.940394)" d="M571.272 419.603C571.497 419.451 571.726 419.305 571.948 419.148C575.135 416.884 577.852 411.36 580.759 408.388C578.747 411.356 572.67 418.323 572.798 421.559C555.263 453.363 544.436 483.402 545.879 520.338C546.275 530.462 547.273 540.581 550.073 550.351C554.218 564.808 561.393 578.561 567.893 592.089C569.87 596.206 572.249 600.321 573.878 604.582C572.617 604.546 571.314 604.315 570.058 604.173L569.631 604.002C567.629 597.636 563.063 591.375 560.238 585.207C547.49 557.371 542.359 541.743 542.457 510.803C542.749 507.487 542.916 504.155 543.125 500.833C545.579 472.751 555.36 442.993 571.272 419.603Z"/>
	<path fill="#666B67" transform="scale(0.940394 0.940394)" d="M648.672 350.038C678.199 335.986 704.987 332.077 737.475 333.562C749.905 335.19 761.833 337.217 773.864 340.905L774.611 342.522L775.635 344.508C735.556 330.205 688.927 334.159 650.698 352.136C626.279 363.62 603.022 382.395 586.167 403.452C583.913 406.269 574.248 420.543 572.798 421.559C572.67 418.323 578.747 411.356 580.759 408.388C577.852 411.36 575.135 416.884 571.948 419.148C571.726 419.305 571.497 419.451 571.272 419.603L573.494 415.689C576.724 411.902 579.743 407.896 582.844 404C595.524 384.567 620.088 365.819 640.137 354.405C643.038 353.03 645.899 351.661 648.672 350.038Z"/>
	<path fill="#1D85C6" transform="scale(0.940394 0.940394)" d="M713.247 363.705C745.337 359.647 785.106 374.492 810.738 393.37C841.146 415.766 862.832 452.9 868.338 490.147C871.72 513.028 870.267 535.474 862.873 557.537C856.149 577.6 844.642 596.179 833.789 614.22C814.331 646.57 793.248 677.599 771.751 708.609C757.03 729.845 742.626 751.534 727.195 772.252C725.592 774.457 724.134 776.804 722.628 779.079C700.553 749.323 679.626 718.468 658.994 687.698C639.266 658.277 619.807 628.605 602.991 597.403C595.249 583.039 587.714 568.341 582.148 552.972Q580.783 549.271 579.685 545.483Q578.588 541.694 577.763 537.837Q576.938 533.98 576.389 530.073Q575.841 526.167 575.572 522.232C572.441 481.841 586.863 444.479 613.07 414.133Q614.244 412.77 615.45 411.437Q616.657 410.103 617.897 408.8Q619.136 407.496 620.407 406.224Q621.678 404.951 622.979 403.71Q624.281 402.469 625.613 401.26Q626.945 400.052 628.307 398.877Q629.668 397.701 631.057 396.559Q632.447 395.418 633.865 394.311Q635.282 393.204 636.726 392.132Q638.171 391.06 639.641 390.024Q641.111 388.988 642.606 387.988Q644.101 386.988 645.62 386.026Q647.14 385.063 648.682 384.138Q650.225 383.214 651.789 382.327Q653.354 381.44 654.94 380.592Q656.526 379.744 658.133 378.936Q659.739 378.127 661.365 377.358Q662.991 376.589 664.635 375.86Q666.28 375.132 667.941 374.443Q669.603 373.755 671.281 373.108Q672.959 372.461 674.653 371.856Q676.346 371.25 678.054 370.687Q679.762 370.123 681.484 369.601Q683.205 369.08 684.938 368.601Q686.672 368.122 688.417 367.685Q690.162 367.249 691.917 366.856Q693.672 366.463 695.436 366.113Q697.2 365.763 698.972 365.456Q700.744 365.15 702.524 364.887Q704.303 364.624 706.088 364.405Q707.873 364.186 709.663 364.011Q711.453 363.836 713.247 363.705Z"/>
	<path fill="#F9F9F9" transform="scale(0.940394 0.940394)" d="M715.513 394.29C743.843 392.02 773.634 401.137 795.562 419.311C820.36 439.864 836.081 471.013 839.017 502.92Q839.148 504.389 839.242 505.861Q839.336 507.333 839.393 508.807Q839.45 510.281 839.471 511.756Q839.492 513.231 839.476 514.706Q839.46 516.18 839.407 517.654Q839.354 519.128 839.265 520.601Q839.175 522.073 839.049 523.543Q838.923 525.012 838.76 526.478Q838.598 527.944 838.398 529.406Q838.199 530.867 837.964 532.323Q837.729 533.779 837.457 535.229Q837.185 536.679 836.878 538.122Q836.57 539.564 836.227 540.998Q835.883 542.433 835.504 543.858Q835.125 545.284 834.711 546.699Q834.297 548.115 833.847 549.52Q833.397 550.925 832.913 552.318Q832.429 553.711 831.91 555.092Q831.391 556.472 830.838 557.84Q830.285 559.207 829.698 560.56Q829.111 561.914 828.49 563.252Q827.87 564.59 827.216 565.912Q826.563 567.234 825.877 568.54Q825.19 569.846 824.472 571.134Q823.753 572.422 823.003 573.692Q822.252 574.961 821.47 576.212Q820.688 577.463 819.876 578.694Q819.063 579.925 818.22 581.135Q817.377 582.345 816.504 583.534Q815.631 584.723 814.729 585.89Q813.826 587.057 812.895 588.201Q811.964 589.345 811.005 590.465C789.696 615.713 761.654 628.108 729.122 630.755C728.921 630.781 728.72 630.814 728.517 630.834C723.042 631.377 717.163 630.844 711.715 630.204Q709.551 629.958 707.398 629.633Q705.244 629.309 703.104 628.906Q700.963 628.504 698.839 628.025Q696.715 627.545 694.609 626.99Q692.503 626.434 690.419 625.802Q688.335 625.17 686.275 624.464Q684.215 623.757 682.182 622.977Q680.148 622.196 678.145 621.342Q676.141 620.489 674.17 619.563Q672.199 618.638 670.262 617.641Q668.325 616.645 666.426 615.58Q664.527 614.514 662.667 613.38Q660.807 612.247 658.99 611.047Q657.173 609.847 655.4 608.582Q653.627 607.317 651.902 605.988Q650.176 604.66 648.499 603.27C625.194 584.09 609.488 553.907 606.707 523.879Q606.568 522.42 606.464 520.958Q606.361 519.496 606.295 518.032Q606.228 516.568 606.198 515.103Q606.168 513.638 606.174 512.172Q606.181 510.707 606.224 509.242Q606.267 507.777 606.347 506.314Q606.426 504.851 606.543 503.39Q606.659 501.929 606.811 500.471Q606.964 499.014 607.152 497.56Q607.341 496.107 607.566 494.659Q607.791 493.211 608.052 491.769Q608.313 490.327 608.61 488.891Q608.907 487.456 609.24 486.029Q609.573 484.602 609.941 483.183Q610.309 481.765 610.712 480.356Q611.116 478.947 611.554 477.549Q611.993 476.15 612.466 474.763Q612.939 473.376 613.447 472.001Q613.955 470.627 614.496 469.265Q615.038 467.903 615.614 466.556Q616.189 465.208 616.798 463.875Q617.407 462.542 618.05 461.225Q618.692 459.907 619.367 458.606Q620.041 457.305 620.748 456.022Q621.455 454.738 622.194 453.472Q622.933 452.207 623.703 450.96Q624.473 449.713 625.274 448.486Q626.075 447.259 626.907 446.052Q627.738 444.845 628.599 443.659Q629.461 442.473 630.351 441.309Q631.242 440.146 632.161 439.004Q633.081 437.863 634.028 436.745Q634.982 435.624 635.962 434.525Q636.942 433.427 637.948 432.353Q638.955 431.279 639.987 430.23Q641.019 429.18 642.076 428.156Q643.133 427.131 644.215 426.133Q645.296 425.134 646.401 424.162Q647.506 423.19 648.635 422.244Q649.763 421.299 650.914 420.381Q652.065 419.464 653.237 418.574Q654.41 417.684 655.604 416.823Q656.797 415.961 658.011 415.129Q659.226 414.297 660.459 413.494Q661.693 412.692 662.946 411.919Q664.199 411.146 665.47 410.404Q666.741 409.662 668.03 408.95Q669.318 408.239 670.624 407.559Q671.929 406.879 673.251 406.23Q674.572 405.582 675.909 404.965Q677.245 404.349 678.597 403.765Q679.948 403.181 681.313 402.629Q682.677 402.078 684.055 401.56Q685.433 401.042 686.823 400.557Q688.213 400.072 689.614 399.621Q691.015 399.17 692.426 398.753Q693.838 398.335 695.259 397.952Q696.681 397.569 698.111 397.22Q699.541 396.872 700.979 396.558Q702.417 396.243 703.862 395.964Q705.307 395.685 706.759 395.44Q708.21 395.196 709.667 394.987Q711.124 394.777 712.586 394.603Q714.048 394.429 715.513 394.29Z"/>
	<path fill="#F54D40" transform="scale(0.940394 0.940394)" d="M800.315 448.938C813.29 462.603 821.567 487.002 822.609 505.582C824.103 532.193 816.881 557.893 799.041 578.006Q789.326 567.518 779.189 557.438Q767.083 545.177 754.707 533.19C748.246 526.966 740.853 520.535 735.155 513.627C746.355 501.31 758.706 489.954 770.542 478.255C780.399 468.512 789.884 458.049 800.315 448.938Z"/>
	<path fill="#3F8B5D" transform="scale(0.940394 0.940394)" d="M724.393 524.866Q743.738 543.739 762.36 563.324C771.059 572.294 779.984 581.065 788.518 590.191C769.147 605.065 748.5 613.519 723.95 614.401C697.107 614.305 679.831 605.177 658.508 590.29C680.437 568.433 702.132 546.393 724.393 524.866Z"/>
	<path fill="#1D85C6" transform="scale(0.940394 0.940394)" d="M645.278 448.202C650.622 450.603 704.751 505.834 713.443 514.259Q691.998 536.32 669.923 557.75C662.811 564.855 655.787 572.01 648.331 578.759C636.636 565.23 628.723 551.068 624.922 533.488Q624.489 531.449 624.142 529.395Q623.794 527.34 623.533 525.272Q623.271 523.205 623.096 521.128Q622.921 519.051 622.832 516.969Q622.743 514.887 622.741 512.803Q622.739 510.719 622.824 508.637Q622.909 506.555 623.081 504.478Q623.252 502.401 623.51 500.333Q623.768 498.265 624.111 496.209Q624.455 494.154 624.884 492.115Q625.313 490.075 625.826 488.055Q626.34 486.036 626.937 484.039Q627.534 482.042 628.214 480.072Q628.893 478.102 629.654 476.162Q630.416 474.222 631.257 472.316Q632.098 470.409 633.018 468.539C636.53 461.429 640.964 454.84 645.278 448.202Z"/>
	<path fill="#F38B3C" transform="scale(0.940394 0.940394)" d="M722.115 410.709C747.803 409.866 770.96 419.103 789.761 436.379C768.817 459.103 745.879 480.028 724.98 502.779C720.339 500.682 664.897 444.113 657.082 436.209C678.845 420.245 694.709 412.368 722.115 410.709Z"/>
</svg>
